<svg width="943" height="177" viewBox="0 0 943 177" fill="none" xmlns="http://www.w3.org/2000/svg">
<g clip-path="url(#clip0_6530_117938)">
<path d="M22.023 165.92V12.7116C22.023 6.59208 17.093 1.63129 11.0115 1.63129C4.93003 1.63129 0 6.59208 0 12.7116V165.92C0 172.039 4.93003 177 11.0115 177C17.093 177 22.023 172.039 22.023 165.92Z" fill="#29319B"/>
<path d="M54.6541 103.786V31.5388C54.6541 25.3407 49.7241 26.1335 43.6426 26.1335C37.5612 26.1335 32.6311 25.3407 32.6311 31.5388V103.786C32.6311 109.984 37.5612 115.008 43.6426 115.008C49.7241 115.008 54.6541 109.984 54.6541 103.786Z" fill="url(#paint0_linear_6530_117938)"/>
<path d="M119.889 81.1759V36.2394C119.889 31.7118 114.96 26.1006 108.878 26.1006C102.796 26.1006 97.8665 31.7118 97.8665 36.2394V81.1759C97.8665 85.7039 102.796 90.5384 108.878 90.5384C114.96 90.5384 119.889 85.7039 119.889 81.1759Z" fill="url(#paint1_linear_6530_117938)"/>
<path d="M65.2595 12.7146V84.0644C65.2595 90.1851 70.2735 90.5391 76.355 90.5391C82.4367 90.5391 87.2826 90.1851 87.2826 84.0644V12.7146C87.2826 6.59343 82.3527 1.63129 76.271 1.63129C70.1896 1.63129 65.2595 6.59343 65.2595 12.7146Z" fill="url(#paint2_linear_6530_117938)"/>
<path d="M41.5447 3.41925C42.4986 1.85634 44.7681 1.85634 45.7221 3.41925L54.43 17.6866C55.4252 19.3172 54.2516 21.4084 52.3413 21.4084H34.9255C33.0151 21.4084 31.8415 19.3172 32.8368 17.6866L41.5447 3.41925Z" fill="url(#paint3_linear_6530_117938)"/>
<path d="M78.3505 113.219C77.3965 114.783 75.127 114.783 74.1731 113.219L65.4652 98.9523C64.4699 97.3218 65.6436 95.2304 67.5539 95.2304H84.9699C86.8801 95.2304 88.0539 97.3218 87.0588 98.9523L78.3505 113.219Z" fill="url(#paint4_linear_6530_117938)"/>
</g>
<path d="M151.603 130.5V51.3H183.613C184.383 51.3 185.337 51.3367 186.473 51.41C187.61 51.4467 188.692 51.5567 189.718 51.74C194.118 52.4367 197.785 53.94 200.718 56.25C203.688 58.56 205.907 61.475 207.373 64.995C208.84 68.515 209.573 72.4017 209.573 76.655C209.573 80.945 208.84 84.85 207.373 88.37C205.907 91.89 203.688 94.805 200.718 97.115C197.785 99.425 194.118 100.928 189.718 101.625C188.692 101.772 187.592 101.882 186.418 101.955C185.282 102.028 184.347 102.065 183.613 102.065H163.098V130.5H151.603ZM163.098 91.175H183.173C183.907 91.175 184.713 91.1383 185.593 91.065C186.51 90.9917 187.372 90.8633 188.178 90.68C190.525 90.13 192.413 89.1217 193.843 87.655C195.273 86.1517 196.3 84.4283 196.923 82.485C197.547 80.5417 197.858 78.5983 197.858 76.655C197.858 74.7117 197.547 72.7867 196.923 70.88C196.3 68.9367 195.273 67.2317 193.843 65.765C192.413 64.2617 190.525 63.235 188.178 62.685C187.372 62.465 186.51 62.3183 185.593 62.245C184.713 62.1717 183.907 62.135 183.173 62.135H163.098V91.175ZM260.058 130.5V101.295C260.058 98.985 259.857 96.62 259.453 94.2C259.087 91.7433 258.353 89.47 257.253 87.38C256.19 85.29 254.668 83.6033 252.688 82.32C250.745 81.0367 248.197 80.395 245.043 80.395C242.99 80.395 241.047 80.7433 239.213 81.44C237.38 82.1 235.767 83.1817 234.373 84.685C233.017 86.1883 231.935 88.1683 231.128 90.625C230.358 93.0817 229.973 96.07 229.973 99.59L222.823 96.895C222.823 91.505 223.832 86.7567 225.848 82.65C227.865 78.5067 230.762 75.28 234.538 72.97C238.315 70.66 242.88 69.505 248.233 69.505C252.34 69.505 255.787 70.165 258.573 71.485C261.36 72.805 263.615 74.5467 265.338 76.71C267.098 78.8367 268.437 81.165 269.353 83.695C270.27 86.225 270.893 88.7 271.223 91.12C271.553 93.54 271.718 95.6667 271.718 97.5V130.5H260.058ZM218.313 130.5V51.3H228.598V94.035H229.973V130.5H218.313ZM309.639 132.15C303.699 132.15 298.547 130.812 294.184 128.135C289.821 125.458 286.447 121.773 284.064 117.08C281.717 112.35 280.544 106.905 280.544 100.745C280.544 94.5483 281.754 89.1033 284.174 84.41C286.594 79.68 289.986 76.0133 294.349 73.41C298.712 70.77 303.809 69.45 309.639 69.45C315.579 69.45 320.731 70.7883 325.094 73.465C329.457 76.1417 332.831 79.8267 335.214 84.52C337.597 89.2133 338.789 94.6217 338.789 100.745C338.789 106.942 337.579 112.405 335.159 117.135C332.776 121.828 329.402 125.513 325.039 128.19C320.676 130.83 315.542 132.15 309.639 132.15ZM309.639 121.315C315.322 121.315 319.557 119.408 322.344 115.595C325.167 111.745 326.579 106.795 326.579 100.745C326.579 94.5483 325.149 89.5983 322.289 85.895C319.466 82.155 315.249 80.285 309.639 80.285C305.789 80.285 302.617 81.165 300.124 82.925C297.631 84.6483 295.779 87.05 294.569 90.13C293.359 93.1733 292.754 96.7117 292.754 100.745C292.754 106.978 294.184 111.965 297.044 115.705C299.904 119.445 304.102 121.315 309.639 121.315ZM382.665 130.5C378.925 131.233 375.259 131.545 371.665 131.435C368.072 131.325 364.864 130.628 362.04 129.345C359.217 128.062 357.09 126.045 355.66 123.295C354.377 120.838 353.68 118.345 353.57 115.815C353.497 113.248 353.46 110.352 353.46 107.125V54.6H365.01V106.575C365.01 108.958 365.029 111.03 365.065 112.79C365.139 114.55 365.524 116.035 366.22 117.245C367.54 119.518 369.63 120.82 372.49 121.15C375.387 121.443 378.779 121.315 382.665 120.765V130.5ZM342.075 80.34V71.1H382.665V80.34H342.075ZM416.098 132.15C410.158 132.15 405.007 130.812 400.643 128.135C396.28 125.458 392.907 121.773 390.523 117.08C388.177 112.35 387.003 106.905 387.003 100.745C387.003 94.5483 388.213 89.1033 390.633 84.41C393.053 79.68 396.445 76.0133 400.808 73.41C405.172 70.77 410.268 69.45 416.098 69.45C422.038 69.45 427.19 70.7883 431.553 73.465C435.917 76.1417 439.29 79.8267 441.673 84.52C444.057 89.2133 445.248 94.6217 445.248 100.745C445.248 106.942 444.038 112.405 441.618 117.135C439.235 121.828 435.862 125.513 431.498 128.19C427.135 130.83 422.002 132.15 416.098 132.15ZM416.098 121.315C421.782 121.315 426.017 119.408 428.803 115.595C431.627 111.745 433.038 106.795 433.038 100.745C433.038 94.5483 431.608 89.5983 428.748 85.895C425.925 82.155 421.708 80.285 416.098 80.285C412.248 80.285 409.077 81.165 406.583 82.925C404.09 84.6483 402.238 87.05 401.028 90.13C399.818 93.1733 399.213 96.7117 399.213 100.745C399.213 106.978 400.643 111.965 403.503 115.705C406.363 119.445 410.562 121.315 416.098 121.315ZM496.825 130.5V101.295C496.825 98.985 496.623 96.62 496.22 94.2C495.853 91.7433 495.12 89.47 494.02 87.38C492.956 85.29 491.435 83.6033 489.455 82.32C487.511 81.0367 484.963 80.395 481.81 80.395C479.756 80.395 477.813 80.7433 475.98 81.44C474.146 82.1 472.533 83.1817 471.14 84.685C469.783 86.1883 468.701 88.1683 467.895 90.625C467.125 93.0817 466.74 96.07 466.74 99.59L459.59 96.895C459.59 91.505 460.598 86.7567 462.615 82.65C464.631 78.5067 467.528 75.28 471.305 72.97C475.081 70.66 479.646 69.505 485 69.505C489.106 69.505 492.553 70.165 495.34 71.485C498.126 72.805 500.381 74.5467 502.105 76.71C503.865 78.8367 505.203 81.165 506.12 83.695C507.036 86.225 507.66 88.7 507.99 91.12C508.32 93.54 508.485 95.6667 508.485 97.5V130.5H496.825ZM455.08 130.5V71.1H465.365V88.26H466.74V130.5H455.08ZM541.532 130.5V51.3H553.027V130.5H541.532ZM609.033 130.5V101.295C609.033 98.985 608.831 96.62 608.428 94.2C608.061 91.7433 607.328 89.47 606.228 87.38C605.165 85.29 603.643 83.6033 601.663 82.32C599.72 81.0367 597.171 80.395 594.018 80.395C591.965 80.395 590.021 80.7433 588.188 81.44C586.355 82.1 584.741 83.1817 583.348 84.685C581.991 86.1883 580.91 88.1683 580.103 90.625C579.333 93.0817 578.948 96.07 578.948 99.59L571.798 96.895C571.798 91.505 572.806 86.7567 574.823 82.65C576.84 78.5067 579.736 75.28 583.513 72.97C587.29 70.66 591.855 69.505 597.208 69.505C601.315 69.505 604.761 70.165 607.548 71.485C610.335 72.805 612.59 74.5467 614.313 76.71C616.073 78.8367 617.411 81.165 618.328 83.695C619.245 86.225 619.868 88.7 620.198 91.12C620.528 93.54 620.693 95.6667 620.693 97.5V130.5H609.033ZM567.288 130.5V71.1H577.573V88.26H578.948V130.5H567.288ZM655.534 132.095C648.311 132.095 642.426 130.5 637.879 127.31C633.332 124.12 630.546 119.628 629.519 113.835L641.289 112.02C642.022 115.1 643.709 117.538 646.349 119.335C649.026 121.095 652.344 121.975 656.304 121.975C659.897 121.975 662.702 121.242 664.719 119.775C666.772 118.308 667.799 116.292 667.799 113.725C667.799 112.222 667.432 111.012 666.699 110.095C666.002 109.142 664.517 108.243 662.244 107.4C659.971 106.557 656.506 105.512 651.849 104.265C646.752 102.945 642.701 101.533 639.694 100.03C636.724 98.49 634.597 96.7117 633.314 94.695C632.067 92.6417 631.444 90.1667 631.444 87.27C631.444 83.6767 632.397 80.5417 634.304 77.865C636.211 75.1883 638.887 73.1167 642.334 71.65C645.817 70.1833 649.887 69.45 654.544 69.45C659.091 69.45 663.142 70.165 666.699 71.595C670.256 73.025 673.134 75.06 675.334 77.7C677.534 80.3033 678.854 83.365 679.294 86.885L667.524 89.03C667.121 86.17 665.782 83.915 663.509 82.265C661.236 80.615 658.284 79.7167 654.654 79.57C651.171 79.4233 648.347 80.01 646.184 81.33C644.021 82.6133 642.939 84.3917 642.939 86.665C642.939 87.985 643.342 89.1033 644.149 90.02C644.992 90.9367 646.606 91.8167 648.989 92.66C651.372 93.5033 654.892 94.5117 659.549 95.685C664.536 96.9683 668.496 98.3983 671.429 99.975C674.362 101.515 676.452 103.367 677.699 105.53C678.982 107.657 679.624 110.242 679.624 113.285C679.624 119.152 677.479 123.753 673.189 127.09C668.936 130.427 663.051 132.095 655.534 132.095ZM690.694 61.365V50.2H702.189V61.365H690.694ZM690.694 130.5V71.1H702.189V130.5H690.694ZM740.98 158.55C737.79 158.55 734.692 158.055 731.685 157.065C728.715 156.075 726.002 154.608 723.545 152.665C721.088 150.758 719.053 148.393 717.44 145.57L728.055 140.18C729.338 142.71 731.172 144.562 733.555 145.735C735.938 146.908 738.45 147.495 741.09 147.495C744.353 147.495 747.14 146.908 749.45 145.735C751.76 144.598 753.502 142.875 754.675 140.565C755.885 138.255 756.472 135.395 756.435 131.985V115.375H757.81V71.1H767.985V132.095C767.985 133.672 767.93 135.175 767.82 136.605C767.71 138.035 767.508 139.465 767.215 140.895C766.372 144.892 764.758 148.192 762.375 150.795C760.028 153.398 757.022 155.342 753.355 156.625C749.725 157.908 745.6 158.55 740.98 158.55ZM740.1 132.15C734.563 132.15 729.778 130.775 725.745 128.025C721.748 125.275 718.65 121.535 716.45 116.805C714.287 112.038 713.205 106.685 713.205 100.745C713.205 94.7683 714.305 89.4333 716.505 84.74C718.705 80.01 721.822 76.2883 725.855 73.575C729.925 70.825 734.747 69.45 740.32 69.45C745.93 69.45 750.642 70.825 754.455 73.575C758.305 76.2883 761.202 80.01 763.145 84.74C765.125 89.47 766.115 94.805 766.115 100.745C766.115 106.685 765.125 112.02 763.145 116.75C761.165 121.48 758.25 125.238 754.4 128.025C750.55 130.775 745.783 132.15 740.1 132.15ZM741.695 121.755C745.472 121.755 748.552 120.857 750.935 119.06C753.318 117.263 755.06 114.788 756.16 111.635C757.26 108.482 757.81 104.852 757.81 100.745C757.81 96.6383 757.242 93.0083 756.105 89.855C755.005 86.7017 753.282 84.245 750.935 82.485C748.625 80.725 745.673 79.845 742.08 79.845C738.267 79.845 735.132 80.78 732.675 82.65C730.218 84.52 728.385 87.0317 727.175 90.185C726.002 93.3383 725.415 96.8583 725.415 100.745C725.415 104.668 726.002 108.225 727.175 111.415C728.385 114.568 730.182 117.08 732.565 118.95C734.985 120.82 738.028 121.755 741.695 121.755ZM822.919 130.5V101.295C822.919 98.985 822.717 96.62 822.314 94.2C821.947 91.7433 821.214 89.47 820.114 87.38C819.05 85.29 817.529 83.6033 815.549 82.32C813.605 81.0367 811.057 80.395 807.904 80.395C805.85 80.395 803.907 80.7433 802.074 81.44C800.24 82.1 798.627 83.1817 797.234 84.685C795.877 86.1883 794.795 88.1683 793.989 90.625C793.219 93.0817 792.834 96.07 792.834 99.59L785.684 96.895C785.684 91.505 786.692 86.7567 788.709 82.65C790.725 78.5067 793.622 75.28 797.399 72.97C801.175 70.66 805.74 69.505 811.094 69.505C815.2 69.505 818.647 70.165 821.434 71.485C824.22 72.805 826.475 74.5467 828.199 76.71C829.959 78.8367 831.297 81.165 832.214 83.695C833.13 86.225 833.754 88.7 834.084 91.12C834.414 93.54 834.579 95.6667 834.579 97.5V130.5H822.919ZM781.174 130.5V51.3H791.459V94.035H792.834V130.5H781.174ZM880.695 130.5C876.955 131.233 873.288 131.545 869.695 131.435C866.101 131.325 862.893 130.628 860.07 129.345C857.246 128.062 855.12 126.045 853.69 123.295C852.406 120.838 851.71 118.345 851.6 115.815C851.526 113.248 851.49 110.352 851.49 107.125V54.6H863.04V106.575C863.04 108.958 863.058 111.03 863.095 112.79C863.168 114.55 863.553 116.035 864.25 117.245C865.57 119.518 867.66 120.82 870.52 121.15C873.416 121.443 876.808 121.315 880.695 120.765V130.5ZM840.105 80.34V71.1H880.695V80.34H840.105ZM913.733 132.095C906.51 132.095 900.625 130.5 896.078 127.31C891.532 124.12 888.745 119.628 887.718 113.835L899.488 112.02C900.222 115.1 901.908 117.538 904.548 119.335C907.225 121.095 910.543 121.975 914.503 121.975C918.097 121.975 920.902 121.242 922.918 119.775C924.972 118.308 925.998 116.292 925.998 113.725C925.998 112.222 925.632 111.012 924.898 110.095C924.202 109.142 922.717 108.243 920.443 107.4C918.17 106.557 914.705 105.512 910.048 104.265C904.952 102.945 900.9 101.533 897.893 100.03C894.923 98.49 892.797 96.7117 891.513 94.695C890.267 92.6417 889.643 90.1667 889.643 87.27C889.643 83.6767 890.597 80.5417 892.503 77.865C894.41 75.1883 897.087 73.1167 900.533 71.65C904.017 70.1833 908.087 69.45 912.743 69.45C917.29 69.45 921.342 70.165 924.898 71.595C928.455 73.025 931.333 75.06 933.533 77.7C935.733 80.3033 937.053 83.365 937.493 86.885L925.723 89.03C925.32 86.17 923.982 83.915 921.708 82.265C919.435 80.615 916.483 79.7167 912.853 79.57C909.37 79.4233 906.547 80.01 904.383 81.33C902.22 82.6133 901.138 84.3917 901.138 86.665C901.138 87.985 901.542 89.1033 902.348 90.02C903.192 90.9367 904.805 91.8167 907.188 92.66C909.572 93.5033 913.092 94.5117 917.748 95.685C922.735 96.9683 926.695 98.3983 929.628 99.975C932.562 101.515 934.652 103.367 935.898 105.53C937.182 107.657 937.823 110.242 937.823 113.285C937.823 119.152 935.678 123.753 931.388 127.09C927.135 130.427 921.25 132.095 913.733 132.095Z" fill="#29319B"/>
<defs>
<linearGradient id="paint0_linear_6530_117938" x1="41.9467" y1="54.3018" x2="41.8421" y2="109.882" gradientUnits="userSpaceOnUse">
<stop stop-color="#29319B"/>
<stop offset="1" stop-color="#0D7CFF"/>
</linearGradient>
<linearGradient id="paint1_linear_6530_117938" x1="107.182" y1="47.496" x2="107.132" y2="85.8377" gradientUnits="userSpaceOnUse">
<stop stop-color="#29319B"/>
<stop offset="1" stop-color="#0D7CFF"/>
</linearGradient>
<linearGradient id="paint2_linear_6530_117938" x1="76.6116" y1="51.587" x2="78.1348" y2="6.75038" gradientUnits="userSpaceOnUse">
<stop stop-color="#29319B"/>
<stop offset="1" stop-color="#0D7CFF"/>
</linearGradient>
<linearGradient id="paint3_linear_6530_117938" x1="38.1164" y1="16.4697" x2="56.9831" y2="16.479" gradientUnits="userSpaceOnUse">
<stop stop-color="#29319B"/>
<stop offset="1" stop-color="#0D7CFF"/>
</linearGradient>
<linearGradient id="paint4_linear_6530_117938" x1="81.779" y1="100.169" x2="62.9121" y2="100.159" gradientUnits="userSpaceOnUse">
<stop stop-color="#29319B"/>
<stop offset="1" stop-color="#0D7CFF"/>
</linearGradient>
<clipPath id="clip0_6530_117938">
<rect width="119.903" height="177" fill="white"/>
</clipPath>
</defs>
</svg>
