<svg width="688" height="177" viewBox="0 0 688 177" fill="none" xmlns="http://www.w3.org/2000/svg">
<path d="M421.205 99.0494V77.2099C414.239 80.2167 396.158 84.7403 396.158 94.15C396.158 100.365 400.869 105.64 407.46 105.64C413.299 105.627 416.695 102.432 421.205 99.0494ZM421.393 73.626V57.0618C421.393 51.0348 417.433 49.3435 411.796 49.3435C406.158 49.3435 398.05 53.1154 398.05 56.498C398.05 57.4377 398.426 58.5652 398.426 60.082C398.426 65.9211 396.923 69.8675 390.332 69.8675C387.513 69.8675 385.621 67.0486 385.621 64.7801C385.621 61.3975 387.876 58.1894 391.272 55.5584C398.238 49.7193 409.541 45.0078 418.762 45.0078C428.36 45.0078 433.447 50.6589 433.447 59.6927V100.553C433.447 103.184 433.447 107.707 437.031 107.707C439.474 107.707 440.991 104.513 441.367 102.432H443.81C443.058 109.775 439.85 113.922 432.32 113.922C426.481 113.922 421.769 108.647 421.581 103.372C414.239 108.647 409.339 113.922 399.554 113.922C392.399 113.922 385.621 108.271 385.621 100.929C385.621 84.1632 408.776 78.9013 421.393 73.626Z" fill="#002C77"/>
<path d="M558.095 79.2765C558.095 90.9546 562.43 110.351 577.679 110.351C592.552 110.351 597.639 94.9144 597.639 82.8604C597.639 69.8668 595.76 47.8394 577.867 47.8394C562.618 47.826 558.095 67.7862 558.095 79.2765ZM544.913 78.5248C544.913 60.0679 558.095 44.4434 577.491 44.4434C598.015 44.4434 611.009 59.88 611.009 79.0885C611.009 98.8608 598.203 113.546 577.679 113.546C556.779 113.546 544.913 97.9078 544.913 78.5248Z" fill="#002C77"/>
<path d="M165.508 10.1747V6.59075H200.905V10.1747C194.314 10.3627 191.871 10.3627 191.871 14.3225C191.871 14.5104 192.059 15.45 192.623 16.9534L214.086 89.6398L244.208 3.20813H246.651L272.826 88.6868C272.826 88.6868 293.538 26.1751 293.538 17.3293C293.538 10.3627 289.202 10.7385 283.564 10.1747V6.59075H305.404C315.001 6.59075 324.8 3.39606 330.264 0V55.1692C337.042 49.1422 342.693 44.4306 352.479 44.4306C359.633 44.4306 366.412 47.6253 369.996 53.6523C373.191 58.9276 373.956 64.015 373.956 70.0286V100.714C373.956 108.62 376.023 108.62 382.802 109.184V112.003H353.056V109.184C359.459 108.808 361.526 108.808 361.526 100.714V70.0286C361.526 65.1291 361.526 63.062 359.271 58.5384C356.828 54.0148 352.304 49.8804 346.653 50.82C337.995 52.1355 334.787 56.2833 330.277 60.4176V100.714C330.277 108.62 332.344 108.62 338.935 109.184V112.003H309.001V109.184C315.968 108.808 318.035 108.808 318.035 100.714V11.2754C318.223 11.0875 315.592 11.2754 312.384 11.2754C300.33 12.0271 300.142 21.0609 296.196 31.9874L269.269 113.895H266.45L240.087 31.6115L209.402 113.708H206.771L178.34 23.5174C176.649 18.8058 175.897 14.8594 173.253 12.2151C171.723 10.9264 171.723 10.1747 165.508 10.1747Z" fill="#002C77"/>
<path d="M642.446 111.843V109.025C635.668 108.649 633.788 108.649 633.788 100.555V64.406C633.788 57.4394 643.198 51.0365 649.789 51.0365C659.95 51.0365 665.413 57.4394 665.413 67.0369V100.555C665.413 108.461 663.346 108.461 656.379 109.025V111.843H687.253V109.025C681.977 108.649 677.655 108.649 677.655 100.555V64.406C677.655 52.9158 666.165 44.2578 654.876 44.2578C645.091 44.2578 640.003 48.7814 633.6 55.1843V44.2578C626.822 46.7008 619.855 50.2848 612.513 51.2244V53.6675C619.103 54.4192 621.358 56.4863 621.358 62.1375V100.367C621.358 108.273 619.291 108.273 612.325 108.837V111.655" fill="#002C77"/>
<path d="M478.267 111.841V109.022C470.361 108.646 468.294 108.646 468.294 100.552V60.256C468.294 57.813 472.254 54.0411 476.764 54.0411C480.724 54.0411 481.475 58.7526 486.549 58.7526C492.764 58.7526 494.268 55.37 494.268 50.8464C494.268 46.1348 489.18 43.5039 483.529 43.5039C476.75 43.5039 471.663 49.343 467.904 54.4304V44.0677C460.75 47.2624 453.22 50.2826 446.253 51.4101V53.8532C453.22 54.6049 456.038 56.2962 456.038 62.1353V100.74C456.038 108.646 453.971 108.646 447.38 109.21V112.029" fill="#002C77"/>
<path d="M544.538 48.2032L546.793 39.7332H519.879V26.1758H518.376C512.161 33.7062 506.134 39.9211 498.792 46.3239V48.0152H507.262V94.1506C507.262 105.077 512.161 114.111 524.014 114.111C534.175 114.111 541.907 106.768 546.041 101.869L544.162 99.238C540.39 103.386 535.692 105.829 531.168 105.829C522.134 105.829 519.866 100.929 519.866 92.6472V48.4045" fill="#002C77"/>
<path d="M172.474 153.454C172.474 158.542 173.79 162.676 179.441 162.676C184.528 162.676 187.159 159.293 187.159 153.454V143.092C187.159 142.34 186.971 141.776 186.971 141.024C186.783 139.709 185.468 139.145 183.777 138.957V138.018H192.434V138.957C190.743 139.145 189.428 139.709 189.24 141.024C189.24 141.588 189.052 142.152 189.052 143.092V153.642C189.052 161.548 183.964 164.569 179.266 164.569C171.36 164.569 168.904 160.609 168.904 153.83V142.716C168.904 139.333 169.092 139.521 165.709 139.132V138.192H175.682V139.132C172.3 139.508 172.488 139.32 172.488 142.716" fill="#002C77"/>
<path d="M172.474 153.455H171.723C171.723 156.086 172.099 158.542 173.226 160.421C174.354 162.301 176.421 163.428 179.441 163.428C182.072 163.428 184.341 162.489 185.844 160.797C187.347 159.106 187.911 156.462 187.911 153.455V143.092C187.911 142.153 187.723 141.589 187.723 141.025C187.535 140.085 186.971 139.334 186.408 138.958C185.656 138.582 184.904 138.394 183.965 138.206V138.958H184.716V138.77H191.871V138.958H192.623V138.206C191.683 138.394 190.931 138.394 190.18 138.958C189.428 139.334 188.864 140.085 188.864 141.025C188.864 141.589 188.676 142.153 188.676 143.092V153.643C188.676 157.415 187.549 159.858 185.857 161.549C184.166 163.052 181.898 163.804 179.642 163.804C175.871 163.804 173.428 162.864 172.112 161.173C170.797 159.482 170.045 157.025 170.045 153.831V142.716V141.965C170.045 141.401 170.045 140.837 170.045 140.273L169.669 139.334C169.293 138.958 168.729 138.77 168.354 138.582C167.79 138.394 167.226 138.394 166.286 138.394V139.146H167.038V138.958H175.508V139.146H176.26L176.072 138.394C174.568 138.582 173.817 138.582 172.877 139.146C172.501 139.522 172.313 139.897 172.313 140.461C172.313 140.837 172.313 141.401 172.313 142.153V142.904V154.582H173.065V153.455H172.313H172.474H173.226V142.528V141.777C173.226 141.025 173.226 140.649 173.226 140.273V139.897C173.226 139.897 173.226 139.709 173.79 139.709C174.166 139.709 174.73 139.522 175.669 139.522H176.421V137.83V137.079H164.931V138.77V139.522H165.682C167.186 139.71 167.937 139.897 167.937 139.897L168.125 140.273C168.125 140.461 168.125 141.025 168.125 141.589V142.34V153.455C168.125 156.837 168.689 159.858 170.568 161.737C172.448 163.804 175.28 164.932 179.226 164.744C181.857 164.744 184.502 163.992 186.381 162.113C188.448 160.234 189.763 157.213 189.763 153.079V142.528C189.763 141.777 189.951 141.213 189.951 140.649H189.2L189.951 140.837C189.951 140.461 190.139 140.273 190.515 139.897C190.891 139.71 191.643 139.522 192.394 139.334H193.146V137.642V136.891H182.783V138.582V139.334H183.535C184.287 139.334 185.039 139.522 185.414 139.897C185.79 140.085 185.978 140.273 185.978 140.837L186.73 140.649H185.978C185.978 141.401 186.166 141.777 186.166 142.528V152.891C186.166 155.71 185.602 157.79 184.287 159.294C183.159 160.609 181.468 161.361 179.199 161.361C176.569 161.361 175.24 160.421 174.3 159.106C173.36 157.603 172.985 155.522 172.985 153.079V152.327H172.233V153.455H172.474Z" fill="#002C77"/>
<path d="M213.523 163.816C208.999 158.541 204.301 152.889 199.59 147.252V159.87C199.59 160.433 199.777 160.997 199.777 161.373C199.965 162.5 200.905 162.876 202.784 162.876V163.628H195.818V162.876C197.133 162.688 198.073 162.313 198.261 161.373C198.261 160.997 198.449 160.433 198.449 159.87V146.5C197.697 145.56 196.757 144.621 195.066 144.621V143.869H200.341C204.677 148.957 208.999 154.232 213.335 159.494V147.816C213.335 147.252 213.147 146.688 213.147 146.312C212.959 145.373 212.019 144.809 210.14 144.809V144.057H217.107V144.809C215.791 144.997 214.852 145.373 214.664 146.312C214.664 146.688 214.476 147.252 214.476 147.816V164.004" fill="#002C77"/>
<path d="M213.523 163.816L214.086 163.252C209.563 157.977 204.865 152.325 200.153 146.688L198.838 144.996V159.681C198.838 160.433 199.026 160.997 199.026 161.373C199.026 162.124 199.589 162.876 200.341 163.064C201.093 163.44 201.845 163.44 202.784 163.628V162.876H202.032V163.628H202.784V162.876H195.818V163.628H196.569V162.876H195.818V163.628C196.569 163.628 197.321 163.44 197.885 163.064C198.448 162.688 199.012 162.124 199.012 161.373C199.012 160.997 199.2 160.433 199.2 159.681V145.936L199.012 145.748C198.261 144.621 197.133 143.493 195.052 143.493V144.245H195.804V143.493H195.052V144.245H200.328V143.493L199.764 144.057C204.1 149.144 208.422 154.419 212.758 159.681L212.945 160.057H213.321H214.073V147.627C214.073 146.876 213.885 146.312 213.885 145.936C213.885 145.184 213.321 144.621 212.57 144.245C211.818 143.869 211.066 143.869 210.127 143.681V144.433H210.878V143.681H209.939V144.433H216.905V143.681H216.154V144.433H216.905V143.681C216.154 143.681 215.59 143.869 214.838 144.245C214.274 144.621 213.711 145.184 213.711 145.936C213.711 146.312 213.523 146.876 213.523 147.627V163.064H213.335V163.816H214.086V163.44L213.899 163.252L213.523 163.816H212.771V164.567H214.462H215.214V147.627C215.214 147.064 215.402 146.688 215.402 146.124H214.65L215.402 146.312L215.778 145.748C215.966 145.56 216.529 145.372 217.093 145.372H217.845V143.869V143.117H209.375V144.621V145.372H210.127C211.066 145.372 211.63 145.56 212.006 145.748L212.382 146.312C212.382 146.876 212.57 147.252 212.57 147.815V159.493H213.321L213.885 158.93C209.549 153.842 205.227 148.567 200.891 143.305L200.516 143.117H194.113V144.621V145.372H194.864C196.18 145.372 196.744 145.936 197.495 147.064L198.059 146.5H197.308V159.869C197.308 160.433 197.308 160.809 197.12 161.373L196.744 161.936C196.556 162.124 195.992 162.312 195.428 162.312H194.677V163.816V164.567H203.147V163.064V162.312H202.395C201.455 162.312 200.891 162.124 200.516 161.936L200.14 161.373L199.388 161.561H200.14C200.14 160.997 199.952 160.621 199.952 160.057V147.439H199.2L198.636 148.003C203.348 153.466 208.046 159.118 212.57 164.567L213.523 163.816Z" fill="#002C77"/>
<path d="M227.456 160.232C227.456 162.863 227.268 162.675 229.899 163.051V163.802H222.181V163.051C224.812 162.675 224.624 162.863 224.624 160.232V147.426C224.624 144.795 224.812 144.983 222.181 144.607V143.855H229.899V144.607C227.268 144.983 227.456 144.795 227.456 147.426" fill="#002C77"/>
<path d="M227.456 160.231H226.704V160.795C226.704 161.359 226.704 161.735 226.704 162.111L227.08 162.862C227.456 163.238 227.832 163.426 228.207 163.426C228.583 163.426 229.147 163.614 229.711 163.614V162.862H228.959V163.614H229.711V162.862H221.992V163.614H222.744V162.862H221.992V163.614C223.12 163.426 223.872 163.426 224.435 163.05L224.999 161.923C224.999 161.547 224.999 161.171 224.999 160.607V160.044V147.238V146.674C224.999 146.11 224.999 145.734 224.999 145.359L224.623 144.607C224.248 144.231 223.872 144.043 223.496 144.043C223.12 144.043 222.556 143.855 221.992 143.855V144.607H222.744V143.855H221.992V144.607H229.711V143.855H228.959V144.607H229.711V143.855C228.583 144.043 227.832 144.043 227.268 144.419L226.704 145.547C226.704 145.922 226.704 146.298 226.704 146.862V147.426V160.231H227.456H228.207V147.426V146.862C228.207 146.298 228.207 146.11 228.207 145.922V145.734C228.207 145.734 228.959 145.547 229.899 145.547H230.65V144.043V143.104H221.429V144.607V145.359H222.18C222.744 145.359 223.308 145.547 223.496 145.547L223.872 145.734C223.872 145.734 223.872 146.11 223.872 146.862V147.426V160.231V160.795C223.872 161.359 223.872 161.735 223.872 161.923V162.111C223.684 162.111 223.12 162.299 222.18 162.299H221.429V163.802V164.554H230.65V163.05V162.299H229.899C229.335 162.299 228.771 162.111 228.583 162.111L228.207 161.923C228.207 161.923 228.207 161.547 228.207 160.795V160.231H227.456Z" fill="#002C77"/>
<path d="M242.517 144.607C241.013 144.607 239.886 144.983 240.825 147.802C241.953 151.185 243.644 156.084 245.161 160.42C247.04 156.084 248.745 151.574 250.436 147.238C251.188 145.359 250.436 144.607 248.369 144.607V143.855H254.584V144.607C253.832 144.607 252.893 144.795 252.141 146.298C249.698 152.138 247.242 157.977 244.986 163.816H243.483C241.792 158.916 239.711 153.453 238.02 148.567C236.892 145.56 236.141 144.607 234.637 144.607V143.855H242.356" fill="#002C77"/>
<path d="M242.516 144.607V143.855C241.953 143.855 241.201 143.855 240.637 144.231C240.073 144.607 239.697 145.358 239.697 146.11C239.697 146.674 239.885 147.238 240.073 147.989C241.201 151.372 242.892 156.271 244.409 160.607L245.161 162.486L245.912 160.607C247.792 156.271 249.496 151.761 251.188 147.425C251.376 146.862 251.564 146.486 251.564 145.922C251.564 145.17 251.188 144.419 250.624 144.231C250.06 143.855 249.308 143.667 248.557 143.667V144.419H249.308V143.667H248.557V144.419H254.772V143.667H254.02V144.419H254.772V143.667C254.208 143.667 253.644 143.667 253.08 144.043C252.517 144.419 251.953 144.983 251.577 145.734C249.134 151.573 246.678 157.412 244.422 163.251L245.174 163.627V162.876H243.671V163.627L244.422 163.439C242.731 158.54 240.651 153.077 238.959 148.191C238.395 146.687 237.832 145.56 237.268 144.808C236.704 144.056 235.764 143.68 234.825 143.68V144.432H235.577V143.68H234.825V144.432L242.516 144.607V143.855H241.765V144.607V145.358H242.516V143.855V144.607H243.268V143.855V143.103H233.858V144.607V145.358H234.61C235.174 145.358 235.362 145.546 235.738 145.922C236.113 146.298 236.677 147.238 237.053 148.741C238.744 153.64 240.825 159.104 242.516 163.99L242.704 164.553H244.771H245.335L245.523 163.99C247.966 158.151 250.423 152.312 252.678 146.472C252.866 145.909 253.241 145.533 253.429 145.345L254.369 145.157H255.121V143.654V143.09H247.402V144.593V145.345H248.154C248.718 145.345 249.282 145.533 249.47 145.533L249.657 146.097C249.657 146.285 249.657 146.66 249.47 147.036C247.778 151.372 245.886 155.882 244.194 160.218L244.946 160.594L245.698 160.406C244.194 156.07 242.503 151.184 241.362 147.788C241.174 147.224 240.986 146.66 240.986 146.472C240.986 146.097 240.986 145.909 241.174 145.909C241.362 145.721 241.738 145.721 242.302 145.721V144.217V144.593H242.516V144.607Z" fill="#002C77"/>
<path d="M258.906 163.064C261.537 162.688 261.349 162.876 261.349 160.245V147.44C261.349 144.809 261.537 144.997 258.906 144.621V143.869H271.712V148.393H270.96C270.584 146.326 270.021 144.621 268.141 144.621H264.182V152.715H266.625C268.504 152.715 269.255 151.963 269.255 150.272H270.007V156.299H269.255C269.255 154.608 268.504 153.668 266.625 153.668H264.182V160.071C264.182 162.514 265.309 162.702 267.953 162.702C272.101 162.702 271.913 161.574 273.229 158.554H273.98L273.041 163.641H258.92" fill="#002C77"/>
<path d="M258.906 163.065L259.094 163.817C260.221 163.629 260.973 163.629 261.537 163.253L262.101 162.126C262.101 161.75 262.101 161.374 262.101 160.81V160.246V147.441V146.877C262.101 146.313 262.101 145.937 262.101 145.561L261.725 144.81C261.349 144.434 260.973 144.246 260.597 144.246C260.221 144.246 259.658 144.058 259.094 144.058V144.81H259.846V144.058H258.906V144.81H270.96V148.582H271.712V147.83H270.96V148.582L271.712 148.394C271.524 147.266 271.336 146.327 270.772 145.387C270.208 144.447 269.269 143.884 267.953 144.071H263.993H263.242V153.857H266.436C267.376 153.857 268.316 153.669 268.879 153.105C269.443 152.541 269.819 151.602 269.819 150.662H269.067V151.414H269.819V150.662H269.067V156.689H269.819V155.937H269.067V156.689H269.819C269.819 155.75 269.631 154.81 269.067 154.246C268.504 153.495 267.564 153.307 266.436 153.307H263.993H263.242V160.461C263.242 161.213 263.242 161.777 263.43 162.152C263.805 162.904 264.369 163.468 265.121 163.656C265.873 163.844 266.624 163.844 267.564 163.844C269.631 163.844 270.947 163.468 271.9 162.716C272.651 161.777 273.027 160.649 273.591 159.132L272.839 158.756V159.508H273.591V158.756L272.839 158.568L272.088 163.092H258.906V163.844H259.658V163.092H258.906L259.094 163.844L258.906 163.065H258.154V163.817V164.569H273.591L274.718 157.79H273.027H272.463L272.275 158.166C271.524 159.669 271.336 160.797 270.772 161.173C270.396 161.548 269.645 161.924 267.577 161.924C266.262 161.924 265.51 161.924 265.134 161.548L264.758 161.173C264.758 160.985 264.571 160.609 264.571 160.045V154.394H266.262C267.014 154.394 267.389 154.582 267.765 154.77C267.953 154.958 268.141 155.521 268.141 156.273V157.025H269.645H270.396V149.306H268.893H268.329V150.058C268.329 150.81 268.141 151.186 267.953 151.374C267.765 151.562 267.389 151.749 266.45 151.749H264.758V145.159H267.953C268.705 145.159 269.081 145.347 269.457 145.91C269.832 146.286 270.02 147.226 270.208 148.166V148.917H271.712H272.463V143.454V143.078H258.154V144.582V145.333H258.906C259.47 145.333 260.034 145.521 260.221 145.521L260.597 145.709C260.597 145.709 260.597 146.085 260.597 146.837V147.4V160.206V160.77C260.597 161.334 260.597 161.709 260.597 161.897V162.085C260.409 162.085 259.846 162.273 258.906 162.273H258.154V163.025L258.906 163.065Z" fill="#002C77"/>
<path d="M279.054 143.855H287.336C290.155 143.855 293.175 145.359 293.175 148.755C293.175 151.762 291.296 153.654 289.216 154.594L292.034 158.93C293.538 160.997 295.041 163.077 295.994 163.641V164.017H292.987C291.296 164.017 290.356 160.822 286.96 155.171H284.33V160.447C284.33 163.077 284.142 162.89 286.773 163.265V164.017H279.054V163.265C281.685 162.89 281.497 163.077 281.497 160.447V147.641C281.497 145.01 281.685 145.198 279.054 144.822V143.855ZM284.128 154.017H286.571C289.014 154.017 290.155 152.138 290.155 148.929C290.155 145.721 288.464 144.782 286.383 144.782H284.128V154.017Z" fill="#002C77"/>
<path d="M279.054 144.607H287.336C288.651 144.607 289.967 144.983 290.92 145.546C291.86 146.298 292.423 147.238 292.423 148.553C292.423 151.184 290.92 152.889 288.839 153.641L287.9 154.016L291.282 159.104C292.786 161.171 294.289 163.252 295.618 164.003L295.994 163.252H295.242V163.627H295.994V162.876H292.987L292.423 162.5C291.484 161.56 290.168 158.728 287.712 154.406L287.524 154.03H284.329H283.39V160.057V160.621C283.39 161.184 283.39 161.56 283.39 161.936L283.765 162.688C284.141 163.064 284.517 163.252 284.893 163.252C285.269 163.252 285.833 163.44 286.396 163.44L286.584 162.688H285.833V163.44H286.584V162.688H278.866V163.44H279.618V162.688H278.866L279.054 163.44C280.181 163.252 280.933 163.252 281.497 162.876L282.061 161.748C282.061 161.372 282.061 160.997 282.061 160.433V159.869V147.063V146.5C282.061 145.936 282.061 145.56 282.061 145.184L281.685 144.432C281.309 144.057 280.933 143.869 280.557 143.681C280.181 143.681 279.618 143.493 279.054 143.493V144.607H279.806V143.855H278.302V144.607V145.359H279.054C279.618 145.359 280.181 145.546 280.369 145.546L280.745 145.734C280.745 145.922 280.745 146.298 280.745 146.862V147.426V160.231V160.795C280.745 161.359 280.745 161.735 280.745 161.923V162.111C280.557 162.111 279.994 162.299 279.054 162.299H278.302V163.802V164.554H287.524V163.05V162.299H286.772C286.208 162.299 285.645 162.111 285.457 162.111L285.081 161.923C285.081 161.923 285.081 161.547 285.081 160.795V160.231V155.708H286.96V154.956L286.208 155.332C287.9 158.151 289.027 160.419 289.98 161.923C290.356 162.674 290.92 163.238 291.296 163.802C291.672 164.178 292.423 164.554 292.987 164.554H295.994H296.746V163.426V163.05L296.37 162.862C295.618 162.486 293.927 160.419 292.598 158.339L289.779 154.003L289.215 154.379L289.591 155.131C292.034 154.191 294.115 151.936 294.115 148.54C294.115 146.661 293.175 145.157 292.048 144.204C290.732 143.265 289.229 142.889 287.524 142.889H279.242V144.58H279.054V144.607ZM284.128 154.016V154.768H286.571C288.074 154.768 289.202 154.204 289.954 153.077C290.705 151.949 290.893 150.634 290.893 148.929C290.893 147.238 290.329 145.922 289.578 145.157C288.638 144.405 287.511 144.03 286.383 144.03H284.128H283.376V154.956H284.128V154.016H284.88V145.546H286.383C287.323 145.546 288.074 145.734 288.45 146.298C289.014 146.862 289.39 147.614 289.39 148.929C289.39 150.432 289.202 151.56 288.638 152.312C288.262 153.063 287.511 153.251 286.571 153.251H284.128V154.016Z" fill="#002C77"/>
<path d="M310.115 148.191C309.927 146.124 308.8 144.607 306.531 144.607C304.84 144.607 303.336 145.547 303.336 147.614C303.336 149.681 305.403 150.809 308.236 152.889C311.243 155.145 312.196 156.661 312.196 158.916C312.196 162.299 308.813 164.192 305.229 164.192C303.35 164.192 301.846 163.816 300.33 163.252L300.142 162.876V158.729H300.893C301.269 161.923 303.336 163.252 305.417 163.252C307.497 163.252 309.189 161.749 309.189 159.668C309.189 157.789 308.249 156.286 303.914 153.453C302.41 152.326 300.531 151.386 300.531 148.178C300.531 145.547 303.35 143.654 306.746 143.654C308.061 143.654 309.565 143.842 310.706 144.218L310.894 144.594V148.366" fill="#002C77"/>
<path d="M310.116 148.193H310.867C310.679 147.066 310.304 146.126 309.552 145.186C308.8 144.435 307.673 143.871 306.357 143.871C305.417 143.871 304.478 144.059 303.726 144.811C302.974 145.374 302.411 146.502 302.411 147.629C302.411 148.945 303.162 149.885 303.914 150.824C304.854 151.764 305.981 152.516 307.498 153.643C309.001 154.771 309.941 155.71 310.505 156.462C311.069 157.214 311.257 157.965 311.257 159.093C311.257 160.596 310.505 161.536 309.377 162.288C308.25 163.039 306.746 163.603 305.042 163.603C303.35 163.603 301.847 163.227 300.518 162.663L300.33 163.415L301.082 163.039L300.894 162.851V158.892H300.142V159.643H300.894V158.892H300.142C300.33 160.583 301.082 161.898 302.021 162.851C302.961 163.791 304.277 163.979 305.605 163.979C306.733 163.979 307.861 163.603 308.8 162.663C309.552 161.912 310.116 160.784 310.116 159.469C310.116 158.341 309.74 157.402 308.988 156.274C308.048 155.146 306.733 154.019 304.464 152.69C303.713 152.126 302.961 151.75 302.397 150.999C301.834 150.247 301.458 149.495 301.458 148.18C301.458 147.24 302.021 146.301 302.961 145.549C303.901 144.797 305.404 144.421 306.733 144.421C307.861 144.421 309.552 144.609 310.505 144.985L310.693 144.233L309.941 144.609V144.797L310.116 148.193H310.867V147.442H310.116H309.364V148.193H310.116V148.945H310.867H311.619V144.421V144.233L311.243 143.67L311.055 143.482H310.867C309.552 143.106 307.861 142.918 306.532 142.918C304.652 142.918 302.948 143.482 301.82 144.421C300.505 145.361 299.753 146.676 299.753 148.381C299.753 150.086 300.317 151.388 301.068 152.341C301.82 153.281 302.76 153.844 303.511 154.408C305.579 155.724 306.894 156.851 307.659 157.791C308.411 158.73 308.599 159.294 308.599 160.046C308.599 161.737 307.283 162.865 305.78 162.865C304.84 162.865 303.901 162.677 303.337 162.113C302.585 161.549 302.209 160.61 302.021 159.294V158.542H300.518H299.766V163.442V163.63L299.954 164.194L300.142 164.382L300.518 164.57C302.021 165.133 303.713 165.509 305.605 165.509C307.498 165.509 309.377 164.945 310.881 164.006C312.384 163.066 313.324 161.375 313.324 159.482C313.324 158.167 312.948 157.039 312.384 155.898C311.632 154.771 310.693 153.831 309.001 152.703C307.498 151.576 306.371 150.824 305.619 150.072C304.867 149.321 304.491 148.757 304.491 148.005C304.491 147.066 304.679 146.69 305.243 146.314C305.619 145.938 306.183 145.75 306.934 145.75C307.874 145.75 308.438 146.126 309.001 146.502C309.377 147.066 309.753 147.817 309.753 148.569H311.257H310.129V148.193H310.116Z" fill="#002C77"/>
<path d="M323.109 160.232C323.109 162.863 322.921 162.675 325.552 163.051V163.802H317.834V163.051C320.465 162.675 320.277 162.863 320.277 160.232V147.426C320.277 144.795 320.465 144.983 317.834 144.607V143.855H325.552V144.607C322.921 144.983 323.109 144.795 323.109 147.426" fill="#002C77"/>
<path d="M323.109 160.231H322.357V160.795C322.357 161.359 322.357 161.735 322.357 162.111L322.733 163.05C323.109 163.426 323.485 163.614 323.861 163.802C324.237 163.802 324.8 163.99 325.364 163.99V163.238H324.8V163.99H325.552V163.238H317.834V163.99H318.585V163.238H317.834V163.99C318.961 163.802 319.713 163.802 320.465 163.426C320.841 163.05 321.028 162.674 321.028 162.299C321.028 161.923 321.028 161.547 321.028 160.983V160.419V147.614V147.05C321.028 146.486 321.028 146.11 321.028 145.734L320.653 144.795C320.277 144.419 319.901 144.231 319.525 144.043C319.149 144.043 318.585 143.855 318.022 143.855V144.607H318.773V143.855H318.022V144.607H325.74V143.855H324.8V144.607H325.552V143.855C324.424 144.043 323.673 144.043 323.109 144.419L322.545 145.547C322.545 145.922 322.545 146.298 322.545 146.862V147.426V160.231H323.109H323.861V147.426V146.862C323.861 146.298 323.861 145.922 323.861 145.734V145.547C324.049 145.547 324.612 145.359 325.552 145.359H326.304V143.855V143.104H317.082V144.607V145.359H317.834C318.397 145.359 318.961 145.547 319.149 145.547L319.525 145.734C319.525 145.922 319.525 146.298 319.525 147.05V147.614V160.419V160.983C319.525 161.547 319.525 161.923 319.525 162.111V162.299C319.337 162.299 318.773 162.487 317.834 162.487H317.082V163.99V164.742H326.304V163.238V162.487H325.552C324.988 162.487 324.424 162.299 324.237 162.299L323.861 162.111C323.861 162.111 323.861 161.735 323.861 160.795V160.231H323.109Z" fill="#002C77"/>
<path d="M340.438 160.231C340.438 162.862 340.251 162.674 342.882 163.05V163.802H335.163V163.05C337.794 162.674 337.606 162.862 337.606 160.231V144.795H334.975C332.532 144.795 331.968 146.298 331.015 148.177H330.452L331.203 143.842H347.016L347.768 148.177H347.016C346.076 146.298 345.512 144.795 343.056 144.795H340.425" fill="#002C77"/>
<path d="M340.439 160.234H339.687V160.797C339.687 161.361 339.687 161.737 339.687 162.113L340.063 162.865C340.439 163.24 340.815 163.428 341.19 163.428C341.566 163.428 342.13 163.616 342.694 163.616V162.865H341.942V163.616H342.694V162.865H334.976V163.616H335.727V162.865H334.976V163.616C336.103 163.428 336.855 163.428 337.419 163.052L337.982 161.925C337.982 161.549 337.982 161.173 337.982 160.609V160.046V143.857H334.6C333.284 143.857 332.157 144.421 331.405 145.173C330.653 145.925 330.277 146.864 329.902 147.804L330.653 148.18V147.428H330.465V148.18L331.217 148.368L331.969 144.596H346.466L347.03 148.368L347.781 148.18V147.428H347.03V148.18L347.781 147.804C347.405 146.864 347.03 145.925 346.278 145.173C345.526 144.421 344.587 143.857 343.083 143.857H340.452H339.701V160.046H340.452V159.294H339.701V160.046H340.452V160.797H341.204V145.361H342.895C344.023 145.361 344.399 145.737 344.962 146.112C345.338 146.676 345.714 147.428 346.278 148.368L346.466 148.743H347.593H348.533L347.405 142.904H330.277L329.15 148.743H330.841H331.405L331.593 148.368C332.157 147.428 332.533 146.676 332.908 146.112C333.284 145.549 333.848 145.361 334.976 145.361H336.855V160.046V160.609C336.855 161.173 336.855 161.549 336.855 161.737V161.925C336.667 161.925 336.103 162.113 335.163 162.113H334.412V163.616V164.368H343.633V162.865V162.113H342.882C342.318 162.113 341.754 161.925 341.566 161.925L341.19 161.737C341.19 161.737 341.19 161.361 341.19 160.609V160.046H340.439V160.797V160.234Z" fill="#002C77"/>
<path d="M357.003 163.064C359.634 162.688 359.446 162.876 359.446 160.245V155.91L355.11 147.252C354.171 145.373 353.419 144.621 352.104 144.621V143.869H359.446V144.621C357.379 144.621 357.567 145.748 358.13 147.252L361.513 154.406L365.473 147.252C366.413 145.56 365.473 144.621 363.782 144.621V143.869H369.621V144.621C368.869 144.621 368.117 144.997 367.366 146.312L362.654 154.97C362.278 155.534 362.278 156.286 362.278 157.037V160.232C362.278 162.863 362.09 162.675 364.721 163.051V163.803H357.003" fill="#002C77"/>
<path d="M357.002 163.066L357.19 163.818C358.318 163.63 359.07 163.63 359.633 163.254L360.197 162.127C360.197 161.751 360.197 161.375 360.197 160.811V160.247V155.912V155.724L355.674 146.878C355.11 145.938 354.734 145.187 354.17 144.623C353.606 144.059 352.855 143.871 351.915 143.871V144.623H352.667V143.871H351.915V144.623H359.258V143.871H358.506V144.623H359.258V143.871C358.506 143.871 357.942 143.871 357.566 144.247C357.002 144.623 356.814 145.187 356.814 145.562C356.814 146.314 357.002 146.878 357.378 147.442L361.526 155.912L366.238 147.442C366.613 146.878 366.801 146.314 366.801 145.75C366.801 144.999 366.425 144.435 365.862 144.059C365.298 143.683 364.734 143.683 363.982 143.683V144.435H364.734V143.683H363.982V144.435H369.822V143.683H369.07V144.435H369.822V143.683C368.694 143.683 367.566 144.247 366.815 145.75L362.103 154.408C361.727 155.16 361.727 156.1 361.727 156.851V160.046V160.61C361.727 161.174 361.727 161.549 361.727 161.925L362.103 162.677C362.479 163.053 362.855 163.241 363.231 163.241C363.607 163.241 364.17 163.429 364.734 163.429L364.922 162.677H364.17V163.429H364.922V162.677L357.002 163.066V163.818H357.754V163.066H357.002V162.314H356.251V163.818V164.57H365.472V163.066V162.314H364.721C364.157 162.314 363.781 162.127 363.405 162.127L363.029 161.939C363.029 161.939 363.029 161.563 363.029 160.811V160.247V157.053C363.029 156.301 363.029 155.737 363.217 155.361L367.929 146.703C368.681 145.576 369.056 145.388 369.62 145.388H370.372V143.885V143.133H363.029V144.636V145.388H363.781C364.345 145.388 364.721 145.576 364.909 145.576L365.097 145.952C365.097 146.14 365.097 146.328 364.721 146.891L361.526 152.73L358.707 146.891C358.519 146.328 358.331 145.952 358.331 145.764C358.331 145.764 358.707 145.576 359.271 145.576H360.023V144.072V143.133H351.177V144.636V145.388H351.928C352.492 145.388 352.68 145.576 353.056 145.764C353.432 146.14 353.808 146.703 354.184 147.455L358.519 155.925V160.073V160.637C358.519 161.2 358.519 161.576 358.519 161.764V161.952C358.519 161.952 357.768 162.14 356.828 162.14L357.002 163.066Z" fill="#002C77"/>
<path d="M382.05 157.036C382.05 152.137 386.198 144.982 392.412 144.982C397.312 144.982 398.439 148.365 398.439 151.573C398.439 155.721 395.245 164.379 388.077 164.379C383.365 164.191 382.05 160.419 382.05 157.036ZM395.03 149.694C395.03 145.922 392.775 145.734 392.023 145.734C388.063 145.734 385.432 152.889 385.432 157.788C385.432 159.667 385.808 163.251 388.439 163.251C392.775 163.251 395.03 156.285 395.03 149.694Z" fill="#002C77"/>
<path d="M415.743 146.111L414.803 146.863H409.904C408.024 155.708 405.192 167.387 402.937 173.038H401.246L406.521 146.863H402.937L403.313 145.359H406.695C408.575 137.453 415.165 136.701 416.669 136.701C417.608 136.701 419.3 136.889 419.864 137.453L419.488 139.896L418.548 140.272C417.984 139.332 416.857 138.205 415.353 138.205C413.098 138.205 411.394 139.708 410.642 143.668L410.266 145.547H415.729" fill="#002C77"/>
<path d="M439.099 159.295C439.099 162.677 438.911 162.49 442.293 162.879V163.818H432.32V162.879C435.702 162.503 435.515 162.691 435.515 159.295V142.731C435.515 139.348 435.702 139.536 432.32 139.147V138.207H441.917C448.132 138.207 451.139 140.65 451.139 145.174C451.139 150.449 446.24 153.456 440.588 153.08V152.328C445.3 152.328 447.367 149.697 447.367 145.549C447.367 141.402 445.3 139.523 441.152 139.523H438.897" fill="#002C77"/>
<path d="M439.099 159.293H438.347V160.045C438.347 160.796 438.347 161.172 438.347 161.736L438.723 162.676C439.099 163.052 439.662 163.239 440.038 163.427C440.602 163.615 441.166 163.615 442.105 163.615V162.864H441.542V163.052H433.072V162.864H432.32V163.615C433.823 163.427 434.575 163.427 435.515 162.864C435.89 162.488 436.078 162.112 436.078 161.548C436.078 161.172 436.078 160.609 436.078 159.857V159.105V142.541V141.789C436.078 141.038 436.078 140.662 436.078 140.098L435.702 139.158C435.327 138.782 434.763 138.595 434.387 138.407C433.823 138.219 433.259 138.219 432.32 138.031V138.782H433.072V138.595H441.917C444.924 138.595 447.005 139.158 448.32 140.286C449.636 141.225 450.199 142.729 450.387 144.809C450.387 147.065 449.448 148.769 447.944 150.085C446.441 151.212 444.172 151.964 441.729 151.964H440.978V152.716H441.729V151.964H440.978V152.716H441.166C443.609 152.716 445.501 151.964 446.629 150.649C447.944 149.333 448.508 147.454 448.508 145.185C448.508 142.93 447.944 141.225 446.817 140.098C445.689 138.97 443.81 138.407 441.729 138.407H439.474H438.723V159.306L439.099 159.293V158.541H438.347V159.293H439.099V160.045H439.85V139.897H441.354C443.233 139.897 444.548 140.272 445.501 141.212C446.253 141.964 446.817 143.279 446.817 145.172C446.817 147.065 446.253 148.555 445.501 149.508C444.562 150.447 443.246 151.199 441.166 151.199H440.978H440.226V152.702V153.454H440.978H441.917C444.736 153.454 447.193 152.702 449.072 151.199C450.951 149.695 452.267 147.427 452.267 144.796C452.267 142.353 451.327 140.46 449.636 139.145C447.944 137.829 445.488 137.266 442.293 137.266H431.743V138.957V139.709H432.494C433.998 139.897 434.749 140.084 434.749 140.084L434.937 140.46C434.937 140.648 434.937 141.212 434.937 141.776V142.528V159.092V159.843C434.937 160.407 434.937 160.971 434.937 161.159V161.535C434.937 161.535 434.937 161.535 434.374 161.723C433.998 161.723 433.434 161.911 432.494 161.911H431.743V163.602V164.354H443.233V162.662V161.911H442.481C440.978 161.723 440.226 161.535 440.226 161.535L440.038 161.159C440.038 160.971 440.038 160.407 440.038 159.843V159.092H439.099V159.843V159.293Z" fill="#002C77"/>
<path d="M456.227 163.064C458.858 162.688 458.67 162.876 458.67 160.245V147.44C458.67 144.809 458.858 144.997 456.227 144.621V143.869H469.032V148.393H468.281C467.905 146.326 467.341 144.621 465.462 144.621H461.502V152.715H463.945C465.824 152.715 466.576 151.963 466.576 150.272H467.327V156.299H466.576C466.576 154.608 465.824 153.668 463.945 153.668H461.502V160.071C461.502 162.514 462.629 162.702 465.274 162.702C469.422 162.702 469.234 161.574 470.549 158.554H471.301L470.361 163.641H456.24" fill="#002C77"/>
<path d="M456.227 163.065L456.415 163.817C457.542 163.629 458.294 163.629 458.858 163.253L459.422 162.126C459.422 161.75 459.422 161.374 459.422 160.81V160.246V147.441V146.877C459.422 146.313 459.422 145.937 459.422 145.561L459.046 144.81C458.67 144.434 458.294 144.246 457.918 144.246C457.542 144.246 456.978 144.058 456.415 144.058V144.81H457.166V144.058H456.415V144.81H468.469V148.582H469.22V147.83H468.469V148.582L469.22 148.394C469.032 147.266 468.845 146.327 468.281 145.387C467.717 144.447 466.777 143.884 465.462 144.071H461.502H460.75V153.857H463.945C464.885 153.857 465.824 153.669 466.388 153.105C466.952 152.541 467.328 151.602 467.328 150.662H466.576V151.414H467.328V150.662H466.576V156.689H467.328V155.937H466.576V156.689H467.328C467.328 155.75 467.14 154.81 466.576 154.246C466.012 153.495 465.073 153.307 463.945 153.307H461.502H460.75V160.461C460.75 161.213 460.75 161.777 460.938 162.152C461.314 162.904 461.878 163.468 462.63 163.656C463.381 163.844 464.133 163.844 465.073 163.844C467.14 163.844 468.455 163.468 469.408 162.716C470.16 161.777 470.536 160.649 471.1 159.132L470.348 158.756V159.508H471.1V158.756L470.348 158.568L469.596 163.092H456.227V163.844H456.978V163.092H456.227L456.415 163.844L456.227 163.065H455.475V163.817V164.569H470.912L472.039 157.79H470.348H469.784L469.596 158.166C468.845 159.669 468.657 160.797 468.093 161.173C467.717 161.548 466.965 161.924 464.898 161.924C463.583 161.924 462.831 161.924 462.455 161.548L462.079 161.173C462.079 160.985 461.891 160.609 461.891 160.045V154.394H463.583C464.334 154.394 464.71 154.582 465.086 154.77C465.274 154.958 465.462 155.521 465.462 156.273V157.025H466.965H467.717V149.306H466.214H465.462V150.058C465.462 150.81 465.274 151.186 465.086 151.374C464.898 151.562 464.522 151.749 463.583 151.749H462.267V145.159H465.462C466.214 145.159 466.589 145.347 466.965 145.91C467.341 146.286 467.529 147.226 467.717 148.166V148.917H469.22H469.972V143.454V143.078H455.663V144.582V145.333H456.415C456.978 145.333 457.542 145.521 457.73 145.521L458.106 145.709C458.106 145.709 458.106 146.085 458.106 146.837V147.4V160.206V160.77C458.106 161.334 458.106 161.709 458.106 161.897V162.085C457.918 162.085 457.354 162.273 456.415 162.273H455.663V163.025L456.227 163.065Z" fill="#002C77"/>
<path d="M493.892 163.816C489.368 158.541 484.67 152.889 479.959 147.252V159.87C479.959 160.433 480.147 160.997 480.147 161.373C480.335 162.5 481.274 162.876 483.153 162.876V163.628H476.187V162.876C477.502 162.688 478.442 162.313 478.63 161.373C478.63 160.997 478.818 160.433 478.818 159.87V146.5C478.066 145.56 477.126 144.621 475.435 144.621V143.869H480.71C485.046 148.957 489.368 154.232 493.704 159.494V147.816C493.704 147.252 493.516 146.688 493.516 146.312C493.328 145.373 492.389 144.809 490.509 144.809V144.057H497.476V144.809C496.16 144.997 495.221 145.373 495.033 146.312C495.033 146.688 494.845 147.252 494.845 147.816V164.004" fill="#002C77"/>
<path d="M493.892 163.816L494.456 163.252C489.932 157.977 485.234 152.325 480.522 146.688L479.207 144.996V159.681C479.207 160.433 479.395 160.997 479.395 161.373C479.395 162.124 479.959 162.688 480.71 163.064C481.462 163.44 482.214 163.44 483.153 163.628V162.876H482.402V163.628H483.153V162.876H476.187V163.628H476.938V162.876H476.187V163.628C476.938 163.628 477.69 163.44 478.254 163.064C478.818 162.688 479.381 162.124 479.381 161.373C479.381 160.997 479.569 160.433 479.569 159.681V145.936L479.381 145.748C478.63 144.621 477.502 143.493 475.422 143.493V144.245H476.173V143.493H475.422V144.245H480.697V143.493L480.133 144.057C484.469 149.144 488.791 154.419 493.127 159.681L493.315 160.057H493.691H494.442V147.627C494.442 146.876 494.254 146.312 494.254 145.936C494.254 145.184 493.691 144.621 492.939 144.245C492.187 143.869 491.435 143.869 490.496 143.681V144.433H491.248V143.681H490.496V144.433H497.462V143.681H496.711V144.433H497.462V143.681C496.711 143.681 496.147 143.869 495.583 144.245C495.019 144.621 494.456 145.184 494.456 145.936C494.456 146.312 494.268 146.876 494.268 147.627V163.064H494.08V163.816H494.832V163.44L494.644 163.252L493.892 163.816H493.14V164.567H494.832H495.583V147.627C495.583 147.064 495.771 146.688 495.771 146.124H495.019L495.771 146.312L496.147 145.748C496.335 145.56 496.899 145.372 497.462 145.372H498.214V143.869V143.117H489.744V144.621V145.372H490.496C491.435 145.372 491.999 145.56 492.375 145.748L492.751 146.312C492.751 146.876 492.939 147.252 492.939 147.815V159.493H493.691L494.254 158.93C489.919 153.842 485.596 148.567 481.261 143.305L481.073 143.117H474.67V144.621V145.372H475.422C476.737 145.372 477.301 145.936 478.053 147.064L478.616 146.5H477.865V159.869C477.865 160.433 477.865 160.809 477.677 161.185L477.301 161.749C477.113 161.936 476.549 162.124 475.985 162.124H475.234V163.628V164.379H483.704V162.876V162.124H482.952C482.012 162.124 481.449 161.936 481.073 161.749L480.697 161.185C480.697 160.621 480.509 160.245 480.509 159.681V147.064H479.757L479.194 147.627C483.905 153.091 488.603 158.742 493.127 164.192L493.892 163.816Z" fill="#002C77"/>
<path d="M519.504 163.816C514.98 158.541 510.282 152.889 505.571 147.252V159.87C505.571 160.433 505.758 160.997 505.758 161.373C505.946 162.5 506.886 162.876 508.765 162.876V163.628H501.799V162.876C503.114 162.688 504.054 162.313 504.242 161.373C504.242 160.997 504.43 160.433 504.43 159.87V146.5C503.678 145.56 502.738 144.621 501.047 144.621V143.869H506.322C510.658 148.957 514.98 154.232 519.316 159.494V147.816C519.316 147.252 519.128 146.688 519.128 146.312C518.94 145.373 518 144.809 516.121 144.809V144.057H523.088V144.809C521.772 144.997 520.833 145.373 520.645 146.312C520.645 146.688 520.457 147.252 520.457 147.816V164.004" fill="#002C77"/>
<path d="M519.503 163.816L520.067 163.252C515.543 157.977 510.845 152.326 506.134 146.688L504.818 144.997V159.682C504.818 160.433 505.006 160.997 505.006 161.373C505.006 162.125 505.57 162.689 506.322 163.064C507.073 163.44 507.825 163.44 508.765 163.628V162.877H508.013V163.628H508.765V162.877H501.798V163.628H502.55V162.877H501.798V163.628C502.55 163.628 503.301 163.44 503.865 163.064C504.429 162.689 504.993 162.125 504.993 161.373C504.993 160.997 505.181 160.433 505.181 159.682V145.937L504.993 145.749C504.241 144.621 503.114 143.493 501.033 143.493V144.245H501.785V143.493H501.033V144.245H506.308V143.493L505.744 144.057C510.08 149.145 514.402 154.42 518.738 159.682L518.926 160.058H519.302H520.054V147.628C520.054 146.876 519.866 146.312 519.866 145.937C519.866 145.185 519.302 144.621 518.55 144.245C517.798 143.869 517.047 143.869 516.107 143.681V144.433H516.859V143.681H516.107V144.433H523.074V143.681H522.322V144.433H523.074V143.681C522.322 143.681 521.758 143.869 521.007 144.245C520.443 144.621 519.879 145.185 519.879 145.937C519.879 146.312 519.691 146.876 519.691 147.628V163.064H519.503V163.816H520.255V163.44L520.067 163.252L519.503 163.816H518.751V164.568H520.443H521.195V147.628C521.195 147.064 521.382 146.688 521.382 146.124L521.758 145.561C521.946 145.373 522.51 145.185 523.074 145.185H523.825V143.681V143.118H515.355V144.621V145.373H516.107C517.047 145.373 517.611 145.561 517.986 145.749L518.362 146.312L519.114 146.124H518.362C518.362 146.688 518.55 147.064 518.55 147.628V159.306H519.302L519.866 158.742C515.53 153.655 511.208 148.38 506.872 143.118L506.684 142.93H500.281V144.433V145.185H501.033C502.348 145.185 502.912 145.749 503.664 146.876L504.228 146.312H503.664V159.682C503.664 160.246 503.664 160.621 503.476 160.997L503.1 161.561C502.912 161.749 502.348 161.937 501.785 161.937H501.033V163.44V164.192H509.503V162.689V161.937H508.751C507.812 161.937 507.248 161.749 506.872 161.561L506.496 160.997L505.744 161.185H506.496C506.496 160.621 506.308 160.246 506.308 159.682V147.064H505.557L504.993 147.628C509.704 153.091 514.402 158.742 518.926 164.192L519.503 163.816Z" fill="#002C77"/>
<path d="M538.135 148.191C537.947 146.124 536.819 144.607 534.551 144.607C532.859 144.607 531.356 145.547 531.356 147.614C531.356 149.681 533.423 150.809 536.255 152.889C539.262 155.145 540.215 156.661 540.215 158.916C540.215 162.299 536.833 164.192 533.249 164.192C531.369 164.192 529.866 163.816 528.349 163.252L528.161 162.876V158.729H528.913C529.289 161.923 531.356 163.252 533.436 163.252C535.504 163.252 537.208 161.749 537.208 159.668C537.208 157.789 536.269 156.286 531.933 153.453C530.43 152.326 528.55 151.386 528.55 148.178C528.55 145.547 531.369 143.654 534.765 143.654C536.081 143.654 537.584 143.842 538.725 144.218L538.913 144.594V148.366" fill="#002C77"/>
<path d="M538.134 148.193H538.886C538.698 147.066 538.322 146.126 537.571 145.186C536.819 144.435 535.691 143.871 534.376 143.871C533.436 143.871 532.497 144.059 531.745 144.811C530.993 145.374 530.429 146.502 530.429 147.629C530.429 148.945 531.181 149.885 531.933 150.824C532.872 151.764 534 152.516 535.517 153.643C537.02 154.771 537.96 155.71 538.524 156.462C539.087 157.214 539.275 157.965 539.275 159.093C539.275 160.596 538.524 161.536 537.396 162.288C536.268 163.039 534.765 163.603 533.06 163.603C531.356 163.603 529.866 163.227 528.349 162.663L528.161 163.415L528.913 163.039L528.725 162.851V158.892H528.161V159.643H528.913V158.892H528.161C528.349 160.583 529.1 161.898 530.04 162.851C530.98 163.791 532.295 163.979 533.624 163.979C536.067 163.979 538.148 162.1 538.148 159.643C538.148 158.516 537.772 157.576 537.02 156.448C536.081 155.321 534.765 154.193 532.497 152.865C531.745 152.301 530.993 151.925 530.429 151.173C529.866 150.422 529.49 149.67 529.49 148.354C529.49 147.415 530.054 146.475 530.993 145.723C531.933 144.972 533.436 144.596 534.765 144.596C535.893 144.596 537.584 144.784 538.537 145.16L538.725 144.408L538.161 144.784V144.972V148.193H538.913V147.442H538.161H537.409V148.193H538.134V148.945H538.886H539.638V144.421V144.233L539.262 143.67L539.074 143.482H538.886C537.57 143.106 535.879 142.918 534.55 142.918C532.671 142.918 530.966 143.482 529.839 144.421C528.523 145.361 527.772 146.676 527.772 148.381C527.772 150.086 528.335 151.388 529.087 152.341C529.839 153.281 530.778 153.844 531.53 154.408C533.597 155.724 534.913 156.851 535.678 157.791C536.43 158.73 536.43 159.294 536.617 160.046C536.617 161.737 535.302 162.865 533.799 162.865C532.859 162.865 531.919 162.677 531.356 162.113C530.604 161.549 530.228 160.61 530.04 159.294V158.542H528.161H527.409V163.442V163.63L527.597 164.194L527.785 164.382L528.161 164.57C529.664 165.133 531.356 165.509 533.248 165.509C535.141 165.509 537.02 164.945 538.524 164.006C540.027 163.066 540.967 161.375 540.967 159.482C540.967 158.167 540.591 157.039 540.027 155.898C539.275 154.771 538.336 153.831 536.644 152.703C535.141 151.576 534.013 150.824 533.262 150.072C532.51 149.321 532.134 148.757 532.134 148.005C532.134 147.066 532.322 146.69 532.886 146.314C533.262 145.938 533.825 145.75 534.577 145.75C535.517 145.75 536.081 146.126 536.644 146.502C537.02 147.066 537.396 147.817 537.396 148.569H538.899H538.148V148.193H538.134Z" fill="#002C77"/>
<path d="M549.625 163.064C552.256 162.688 552.068 162.876 552.068 160.245V155.91L547.732 147.252C546.793 145.373 546.041 144.621 544.726 144.621V143.869H552.068V144.621C550.001 144.621 550.189 145.748 550.753 147.252L554.135 154.406L558.095 147.252C559.035 145.56 558.095 144.621 556.404 144.621V143.869H562.243V144.621C561.491 144.621 560.739 144.997 559.988 146.312L555.276 154.97C555.088 155.534 554.9 156.286 554.9 157.037V160.232C554.9 162.863 554.712 162.675 557.343 163.051V163.803H549.625" fill="#002C77"/>
<path d="M549.624 163.066L549.812 163.818C550.94 163.63 551.692 163.63 552.255 163.254L552.819 162.127C552.819 161.751 552.819 161.375 552.819 160.811V160.247V155.912V155.724L548.296 146.878C547.732 145.938 547.356 145.187 546.792 144.623C546.228 144.059 545.477 143.871 544.537 143.871V144.623H545.289V143.871H544.537V144.623H551.88V143.871H551.128V144.623H551.88V143.871C551.128 143.871 550.564 143.871 550.188 144.247C549.624 144.623 549.437 145.187 549.437 145.562C549.437 146.314 549.624 146.878 550 147.442L554.148 155.912L558.86 147.442C559.235 146.878 559.423 146.314 559.423 145.75C559.423 144.999 559.048 144.435 558.484 144.059C557.92 143.683 557.356 143.683 556.605 143.683V144.435H557.356V143.683H556.417V144.435H562.256V143.683H561.504V144.435H562.256V143.683C561.128 143.683 560.001 144.247 559.249 145.75L554.537 154.408C554.162 155.16 554.162 156.1 554.162 156.851V160.046V160.61C554.162 161.174 554.162 161.549 554.162 161.925L554.537 162.677C554.913 163.053 555.289 163.241 555.665 163.241C556.041 163.241 556.605 163.429 557.168 163.429L557.356 162.677H556.605V163.429H557.356V162.677L549.624 163.066V163.818H550.376V163.066H549.624V162.314H548.873V163.818V164.57H558.094V163.066V162.314H557.343C556.779 162.314 556.215 162.127 556.027 162.127L555.651 161.939C555.651 161.939 555.651 161.563 555.651 160.811V160.247V157.053C555.651 156.489 555.651 155.737 555.839 155.361L560.551 146.703C561.303 145.388 561.678 145.388 562.242 145.388H562.994V143.885V143.133H555.651V144.636V145.388H556.403C556.967 145.388 557.343 145.576 557.531 145.576L557.719 145.952C557.719 146.14 557.719 146.328 557.343 146.891L554.148 152.73L551.329 146.891C551.141 146.328 550.953 145.952 550.953 145.764C550.953 145.764 551.329 145.576 551.893 145.576H552.645V144.072V143.133H543.799V144.636V145.388H544.551C545.114 145.388 545.302 145.576 545.678 145.764C546.054 146.14 546.43 146.703 546.806 147.455L551.141 155.925V160.073V160.637C551.141 161.2 551.141 161.576 551.141 161.764V161.952C550.953 161.952 550.39 162.14 549.45 162.14L549.624 163.066Z" fill="#002C77"/>
<path d="M566.941 163.064C569.572 162.688 569.384 162.876 569.384 160.245V147.44C569.384 144.809 569.572 144.997 566.941 144.621V143.869H574.659V144.621C572.028 144.997 572.216 144.809 572.216 147.44V160.809C572.216 162.876 573.344 163.064 575.8 163.064C579.948 163.064 579.76 161.937 581.076 158.916H581.827L580.888 164.004H566.767" fill="#002C77"/>
<path d="M566.941 163.064L567.129 163.815C568.256 163.628 569.008 163.628 569.572 163.252L570.135 162.124C570.135 161.748 570.135 161.372 570.135 160.809V160.245V147.439V146.875C570.135 146.312 570.135 145.936 570.135 145.56L569.76 144.808C569.384 144.432 569.008 144.244 568.632 144.244C568.256 144.244 567.692 144.057 567.129 144.057V144.808H567.88V144.057H567.129V144.808H574.847V144.057H574.095V144.808H574.847V144.057C573.719 144.245 572.968 144.244 572.404 144.62L571.84 145.748C571.84 146.124 571.84 146.5 571.84 147.063V147.627V160.997C571.84 161.56 571.84 162.124 572.216 162.5C572.592 163.252 573.156 163.628 573.907 163.815C574.659 164.003 575.411 164.003 576.35 164.003C578.418 164.003 579.733 163.628 580.686 162.876C581.438 161.936 581.814 160.809 582.377 159.292L581.626 158.916V159.668H582.377V158.916L581.626 158.728L580.874 163.252L566.941 163.064V163.815H567.692V163.064H566.941H566.189V163.815V164.567H581.626L582.753 157.788H581.062H580.498L580.31 158.164C579.559 159.668 579.371 160.795 578.807 161.171C578.431 161.547 577.679 161.923 575.612 161.923C574.297 161.923 573.545 161.923 573.169 161.735L572.793 161.359C572.793 161.171 572.605 160.983 572.605 160.419V147.05V146.486C572.605 145.922 572.605 145.547 572.605 145.359V145.171C572.793 145.171 573.357 144.983 574.297 144.983H575.048V143.479V143.104H565.827V144.607V145.359H566.578C567.142 145.359 567.706 145.547 567.894 145.547L568.27 145.734C568.27 145.734 568.27 146.11 568.27 146.862V147.426V160.231V160.795C568.27 161.359 568.27 161.735 568.27 161.923V162.111C568.082 162.111 567.518 162.299 566.578 162.299H565.827V163.05L566.941 163.064Z" fill="#002C77"/>
<path d="M590.485 144.607C588.981 144.607 587.854 144.983 588.794 147.802C589.921 151.185 591.612 156.084 593.129 160.42C595.008 156.084 596.713 151.574 598.405 147.238C599.156 145.359 598.405 144.607 596.337 144.607V143.855H602.552V144.607C601.801 144.607 600.861 144.795 600.109 146.298C597.666 152.138 595.21 157.977 592.955 163.816H591.451C589.76 158.916 587.679 153.453 585.988 148.567C584.861 145.56 584.109 144.607 582.605 144.607V143.855H590.324" fill="#002C77"/>
<path d="M590.485 144.607V143.855C589.921 143.855 589.169 143.855 588.605 144.231C588.042 144.607 587.666 145.358 587.666 146.11C587.666 146.674 587.854 147.238 588.042 147.989C589.169 151.372 590.86 156.271 592.377 160.607L593.129 162.486L593.881 160.607C595.76 156.271 597.465 151.761 599.156 147.425C599.344 146.862 599.532 146.486 599.532 145.922C599.532 145.17 599.156 144.607 598.592 144.231C598.028 143.855 597.277 143.667 596.525 143.667V144.419H597.277V143.667H596.525V144.419H602.74V143.667H601.988V144.419H602.74V143.667C602.176 143.667 601.612 143.667 601.049 144.043C600.485 144.419 599.921 144.983 599.733 145.734C597.29 151.573 594.834 157.412 592.579 163.251L593.33 163.627V162.876H591.827V163.627L592.579 163.439C590.887 158.54 588.807 153.077 587.115 148.191C586.552 146.687 585.988 145.56 585.424 144.808C584.86 144.056 583.921 143.68 582.981 143.68V144.432H583.733V143.68H582.793V144.432L590.485 144.607V143.855H589.733V144.607V145.358H590.485V143.855V144.607H591.236V143.855V143.103H581.827V144.607V145.358H582.578C583.142 145.358 583.33 145.546 583.706 145.922C584.082 146.298 584.645 147.238 585.021 148.741C586.713 153.64 588.793 159.104 590.485 163.99L590.673 164.553H592.74H593.303L593.491 163.99C595.934 158.151 598.391 152.312 600.646 146.472C600.834 145.909 601.21 145.533 601.398 145.533L602.337 145.345H603.089V143.842V143.09H595.371V144.593V145.345H596.122C596.686 145.345 597.25 145.533 597.438 145.533L597.626 146.097C597.626 146.285 597.626 146.66 597.438 147.036C595.746 151.372 593.854 155.882 592.162 160.218L592.914 160.594L593.666 160.406C592.162 156.07 590.471 151.184 589.33 147.788C589.142 147.224 588.954 146.66 588.954 146.472C588.954 146.097 588.954 145.909 589.142 145.909C589.33 145.721 589.706 145.721 590.27 145.721V144.217V144.593H590.485V144.607Z" fill="#002C77"/>
<path d="M607.237 157.226L605.922 160.998C605.546 162.125 606.11 163.065 607.425 163.065V163.817H602.15V163.065C602.902 163.065 603.841 162.501 604.217 161.561C605.533 159.118 608.741 149.695 611.184 143.48H612.687C614.566 149.132 617.587 157.977 618.526 160.608C619.09 162.3 619.654 163.051 620.781 163.051V163.803H614.19V163.051C616.07 163.051 616.258 162.112 615.694 160.796L614.378 157.024L607.237 157.226ZM614.204 156.098L611.197 146.877L607.814 156.098H614.204Z" fill="#002C77"/>
<path d="M606.485 157.036L605.17 160.808L604.982 161.748C604.982 162.312 605.17 162.875 605.546 163.251C605.922 163.627 606.485 163.815 607.237 163.815V163.063H606.485V163.815H607.237V163.063H601.962V163.815H602.714V163.063H601.962V163.815C603.089 163.815 604.217 163.063 604.781 161.936C606.096 159.305 609.304 150.07 611.747 143.667L610.996 143.479V144.231H612.499V143.479L611.747 143.667C613.627 149.318 616.647 158.164 617.586 160.795C617.962 161.546 618.15 162.298 618.714 162.862C619.09 163.426 619.841 163.802 620.781 163.802V163.05H620.029V163.802H620.781V163.05H614.19V163.802H614.942V163.05H614.19V163.802C614.942 163.802 615.506 163.614 616.07 163.238C616.633 162.862 616.821 162.298 616.821 161.734C616.821 161.359 616.633 160.795 616.633 160.419L615.318 156.647L615.13 156.083H607.224V157.587H614.002L615.13 160.781L615.318 161.533V161.721C615.318 161.721 614.942 161.909 614.378 161.909H613.627V163.412V164.164H621.909V162.661V161.909H621.157C620.781 161.909 620.593 161.909 620.405 161.533C620.217 161.157 619.842 160.593 619.654 159.842C618.714 157.399 615.694 148.539 613.814 142.902L613.627 142.338H611.559H610.996L610.808 142.902C608.365 149.117 605.157 158.526 603.841 160.983C603.465 161.734 602.901 161.922 602.526 161.922H601.774V163.426V164.177H608.553V162.674V161.922H607.801L607.237 161.734L607.049 161.359V160.983L608.365 157.211L606.485 157.036ZM614.204 156.097L614.955 155.909L611.761 146.123H611.009H610.445L606.485 157.05H615.143L614.768 156.11L614.204 156.097V155.345H608.741L611.747 147.063L610.996 146.875L610.244 147.063L613.251 156.285L614.204 156.097Z" fill="#002C77"/>
<path d="M642.835 163.816C638.312 158.541 633.614 152.889 628.902 147.252V159.87C628.902 160.433 629.09 160.997 629.09 161.373C629.278 162.5 630.217 162.876 632.097 162.876V163.628H625.13V162.876C626.446 162.688 627.385 162.313 627.573 161.373C627.573 160.997 627.761 160.433 627.761 159.87V146.5C627.009 145.56 626.07 144.621 624.378 144.621V143.869H629.654C633.989 148.957 638.312 154.232 642.647 159.494V147.816C642.647 147.252 642.459 146.688 642.459 146.312C642.271 145.373 641.332 144.809 639.453 144.809V144.057H646.419V144.809C645.104 144.997 644.164 145.373 643.976 146.312C643.976 146.688 643.788 147.252 643.788 147.816V164.004" fill="#002C77"/>
<path d="M642.835 163.816L643.399 163.252C638.875 157.977 634.177 152.325 629.465 146.688L628.15 144.996V159.681C628.15 160.433 628.338 160.997 628.338 161.373C628.338 162.124 628.902 162.688 629.653 163.064C630.405 163.44 631.157 163.44 632.096 163.628V162.876H631.345V163.628H632.096V162.876H625.13V163.628H625.881V162.876H625.13V163.628C625.881 163.628 626.445 163.44 627.197 163.064C627.761 162.688 628.324 162.124 628.324 161.373C628.324 160.997 628.512 160.433 628.512 159.681V145.936L628.324 145.748C627.573 144.621 626.445 143.493 624.365 143.493V144.245H625.116V143.493H624.365V144.245H629.64V143.493L629.076 144.057C633.412 149.144 637.734 154.419 642.07 159.681L642.258 160.057H642.633H643.385V147.627C643.385 146.876 643.197 146.312 643.197 145.936C643.197 145.184 642.633 144.621 641.882 144.245C641.13 143.869 640.378 143.869 639.439 143.681V144.433H640.19V143.681H639.439V144.433H646.405V143.681H645.654V144.433H646.405V143.681C645.654 143.681 645.09 143.869 644.338 144.245C643.774 144.621 643.211 145.184 643.211 145.936C643.211 146.312 643.023 146.876 643.023 147.627V163.064H642.835V163.816H643.586V163.44L643.399 163.252L642.835 163.816H642.083V164.567H643.774H644.526V147.627C644.526 147.064 644.714 146.688 644.714 146.124L645.09 145.56C645.278 145.372 645.842 145.184 646.405 145.184H647.157V143.681V143.117H638.687V144.621V145.372H639.439C640.378 145.372 640.942 145.56 641.318 145.748L641.694 146.312C641.694 146.876 641.882 147.252 641.882 147.815V159.493H642.633L643.197 158.93C638.862 153.842 634.539 148.567 630.204 143.305L630.016 143.117H623.613V144.621V145.372H624.365C625.68 145.372 626.244 145.936 626.995 147.064L627.559 146.5H626.808V159.869C626.808 160.433 626.808 160.809 626.62 161.373L626.244 161.936C626.056 162.124 625.492 162.312 624.928 162.312H624.177V163.816V164.567H632.647V163.064V162.312H631.895C630.955 162.312 630.392 162.124 630.016 161.936L629.64 161.373C629.64 160.809 629.452 160.433 629.452 159.869V147.252H628.7L628.136 147.815C632.848 153.279 637.546 158.93 642.07 164.379L642.835 163.816Z" fill="#002C77"/>
<path d="M656.38 160.232C656.38 162.863 656.192 162.675 658.823 163.051V163.802H651.104V163.051C653.735 162.675 653.548 162.863 653.548 160.232V147.426C653.548 144.795 653.735 144.983 651.104 144.607V143.855H658.823V144.607C656.192 144.983 656.38 144.795 656.38 147.426" fill="#002C77"/>
<path d="M656.38 160.231H655.628V160.795C655.628 161.359 655.628 161.735 655.628 162.111L656.004 162.862C656.38 163.238 656.755 163.426 657.131 163.426C657.507 163.426 658.071 163.614 658.635 163.614V162.862H658.071V163.614H658.823V162.862H651.104V163.614H651.856V162.862H651.104V163.614C652.232 163.426 652.983 163.426 653.547 163.05L654.111 161.923C654.111 161.547 654.111 161.171 654.111 160.607V160.044V147.238V146.674C654.111 146.11 654.111 145.734 654.111 145.359L653.735 144.607C653.359 144.231 652.983 144.043 652.608 144.043C652.232 144.043 651.668 143.855 651.104 143.855V144.607H651.856V143.855H651.104V144.607H658.823V143.855H658.071V144.607H658.823V143.855C657.695 144.043 656.943 144.043 656.38 144.419L655.816 145.547C655.816 145.922 655.816 146.298 655.816 146.862V147.426V160.231H656.38H657.131V147.426V146.862C657.131 146.298 657.131 146.11 657.131 145.922V145.734C657.319 145.734 657.883 145.547 658.823 145.547H659.574V144.043V143.104H650.353V144.607V145.359H651.104C651.668 145.359 652.232 145.547 652.42 145.547L652.796 145.734C652.796 145.734 652.796 146.11 652.796 146.862V147.426V160.231V160.795C652.796 161.359 652.796 161.735 652.796 161.923V162.111C652.608 162.111 652.044 162.299 651.104 162.299H650.353V163.802V164.554H659.574V163.05V162.299H658.823C658.259 162.299 657.883 162.111 657.507 162.111L657.131 161.923C657.131 161.923 657.131 161.547 657.131 160.795V160.231H656.38Z" fill="#002C77"/>
<path d="M668.433 157.226L667.118 160.998C666.742 162.125 667.306 163.065 668.621 163.065V163.817H663.346V163.065C664.097 163.065 664.849 162.501 665.413 161.561C666.54 159.118 669.936 149.695 672.379 143.48H673.883C675.762 149.132 678.782 157.977 679.722 160.608C680.286 162.3 680.85 163.051 681.977 163.051V163.803H675.386V163.051C677.266 163.051 677.266 162.112 676.89 160.796L675.574 157.024L668.433 157.226ZM675.212 156.098L672.205 146.877L668.822 156.098H675.212Z" fill="#002C77"/>
<path d="M667.682 157.039L666.366 160.811L666.178 161.75C666.178 162.314 666.366 162.878 666.742 163.254C667.118 163.629 667.682 163.817 668.433 163.817V163.066H667.682V163.817H668.433V163.066H663.158V163.817H663.91V163.066H663.158V163.817C664.286 163.817 665.413 163.066 665.977 161.938C667.292 159.307 670.501 150.072 672.944 143.669L672.192 143.481V144.233H673.695V143.481L672.944 143.669C674.823 149.32 677.843 158.166 678.783 160.797C679.159 161.549 679.346 162.3 679.91 162.864C680.286 163.428 681.038 163.804 681.977 163.804V163.052H681.226V163.804H681.977V163.052H675.387V163.804H676.138V163.052H675.387V163.804C676.138 163.804 676.702 163.616 677.266 163.24C677.83 162.864 678.018 162.3 678.018 161.737C678.018 161.361 677.83 160.797 677.83 160.421L676.514 156.649L676.326 156.086H668.42V157.589H675.199L676.326 160.784L676.514 161.535V161.723C676.514 161.723 676.138 161.911 675.575 161.911H674.823V163.415V164.166H683.105V162.663V161.911H682.353C681.977 161.911 681.789 161.911 681.602 161.535C681.414 161.16 681.038 160.596 680.85 159.844C679.91 157.401 676.89 148.542 675.011 142.716L674.823 142.152H672.756H672.192L672.004 142.716C669.561 148.931 666.165 158.341 665.037 160.797C664.662 161.549 664.098 161.737 663.722 161.737H662.97V163.24V163.992H669.749V162.488V161.737H668.997L668.433 161.549L668.246 161.173V160.797L669.561 157.025L667.682 157.039ZM675.212 156.099L675.964 155.911L672.769 146.126H672.205H671.642L667.682 157.052H676.34L675.964 156.112L675.212 156.099V155.347H669.749L672.756 147.065L672.004 146.877L671.252 147.065L674.259 156.287L675.212 156.099Z" fill="#002C77"/>
<path d="M0.000403381 2.83203H155.534V80.5924C154.407 144.044 83.4253 177.373 74.566 176.997C65.3443 176.622 -0.187521 144.044 0.000403381 80.2165C0.000403381 79.089 0.000403381 2.83203 0.000403381 2.83203Z" fill="white"/>
<path d="M3.77197 6.9668H151.964V80.9687C151.024 141.413 83.237 173.038 74.767 172.85C65.9212 172.474 3.59747 141.4 3.7854 80.7807C3.77197 79.6532 3.77197 6.9668 3.77197 6.9668Z" fill="white"/>
<path d="M3.77197 51.9746V6.9668H151.95V51.9746" fill="#A9323D"/>
<path d="M3.77251 51.9739H4.33628V7.52988H151.199V51.4102H3.77251V51.9739H4.33628H3.77251V52.5377H152.514V6.40234H3.19531V52.5377H3.77251V51.9739Z" fill="#A9323D"/>
<path d="M12.0547 117.869C17.7058 129.923 24.8604 139.521 34.6459 147.615L77.761 103.936L119.185 146.487C127.655 138.581 136.125 129.158 141.964 118.057L77.5731 56.1094L12.2426 117.869" fill="#002C77"/>
<path d="M12.0541 117.871L11.4903 118.058C17.1415 130.112 24.296 139.898 34.2694 148.18L34.6453 148.556L77.7604 105.065L119.184 147.616L119.56 147.24C128.218 139.334 136.5 129.911 142.527 118.622L142.715 118.246L77.5725 55.5469L11.6783 117.871L12.0541 118.246L12.242 117.683L11.8662 117.495L10.3628 116.743L11.1145 118.246L12.0541 117.871L11.8662 118.434L12.242 118.622L12.6179 118.81L77.9618 57.0503L141.977 118.622L142.353 118.246L141.789 117.871C135.95 128.985 127.668 138.395 119.01 146.301L119.386 146.865L119.762 146.489L77.7739 103.374L34.2829 147.428L34.6587 147.804L35.0346 147.24C25.2491 139.146 18.2825 129.535 12.6313 117.683L12.0541 117.871Z" fill="#002C77"/>
<path d="M3.77197 52.9131H151.95V51.5977H3.77197" fill="#002C77"/>
<path d="M114.674 18.0817H118.634C121.641 17.33 122.594 15.6387 125.6 15.6387C127.856 15.6387 128.795 17.1421 130.5 17.1421C131.815 17.1421 133.883 15.6387 136.151 15.6387C138.406 15.6387 139.534 16.9541 141.238 17.7058C142.554 18.2696 144.433 18.2696 146.326 18.2696C146.326 19.5851 146.326 20.3368 146.326 21.4643C146.326 22.5919 147.829 22.216 147.829 24.0953C147.829 26.1624 145.762 25.5986 145.762 26.5383V33.8807C145.95 34.8204 147.641 35.0083 147.641 36.3238C147.641 38.3909 145.574 37.6392 145.762 39.3305C145.95 40.4581 145.762 43.1024 145.762 43.1024C141.802 43.1024 116.204 43.2904 114.889 43.2904C114.889 40.6594 115.453 40.6594 115.453 39.3305C115.453 38.203 113.197 37.6392 113.197 35.7465C113.197 34.4311 114.701 34.619 114.701 33.4915V26.149C114.701 25.2094 112.446 24.6456 112.634 23.3301C112.822 21.6388 114.701 21.8268 114.701 20.8871C114.674 20.3368 114.862 18.6454 114.674 18.0817Z" fill="white"/>
<path d="M114.674 18.0806V18.6444H118.634C120.138 18.2685 121.265 17.7047 122.218 17.141C123.158 16.5772 124.098 16.2013 125.413 16.2013C126.353 16.2013 127.104 16.5772 127.668 16.7651C128.42 17.141 129.171 17.5168 130.111 17.5168C131.051 17.5168 131.802 17.141 132.93 16.7651C133.87 16.3893 134.809 16.0134 135.937 16.0134C138.004 16.0134 138.944 17.1409 140.648 18.0806C141.964 18.6443 143.655 18.6444 145.36 18.6444H145.924V18.0806H145.36C145.36 18.4564 145.36 19.0202 145.36 19.3961C145.36 20.1477 145.36 20.7115 145.36 21.4632C145.36 21.8391 145.548 22.2149 145.736 22.5907L146.487 23.1545C146.675 23.3425 146.675 23.5304 146.863 24.0942C146.863 24.8459 146.675 24.8458 146.299 25.2217L145.548 25.5975C145.36 25.7855 144.984 26.1613 144.984 26.5372V33.8796C144.984 34.2555 145.36 34.6313 145.548 34.8192C145.924 35.1951 146.299 35.383 146.487 35.571L146.863 36.1347C146.863 36.5106 146.863 36.6985 146.675 36.8864C146.487 37.0743 146.299 37.2623 145.924 37.4502C145.548 37.6381 144.984 38.2019 144.984 38.9536V39.1415C144.984 39.5173 144.984 40.0811 144.984 40.6449C144.984 41.7725 144.984 42.9 144.984 42.9H145.548V42.3362C141.964 42.3362 120.688 42.5241 115.614 42.5241C115.05 42.5241 114.674 42.5241 114.674 42.5241V43.0879H115.238C115.238 41.7724 115.426 41.2087 115.426 40.8328C115.614 40.457 115.614 40.0811 115.802 39.3294V39.1415C115.802 38.5777 115.614 38.2019 115.238 38.014C114.862 37.6381 114.299 37.2623 114.111 36.8864C113.735 36.5106 113.547 36.1347 113.547 35.7589C113.547 35.383 113.735 35.383 114.111 35.0072C114.487 34.8192 115.05 34.2555 115.238 33.5038V26.1613C115.05 25.2217 114.299 24.8459 113.923 24.47C113.359 24.0942 113.171 23.7183 113.171 23.5304C113.171 22.9666 113.359 22.9666 113.923 22.5907L114.674 22.027C114.862 21.8391 115.238 21.4632 115.238 20.8994C115.238 20.5236 115.238 19.2081 115.238 18.6444V18.2685L114.674 18.0806H114.111V18.4564C114.111 19.2081 114.111 20.3357 114.111 20.7115V20.8994C113.923 21.0874 113.547 21.2753 113.171 21.4632C112.795 21.8391 112.231 22.4028 112.231 23.1545V23.3425C112.231 24.47 112.983 25.0338 113.547 25.4096L114.299 25.9734L114.487 26.1613V33.5038C114.487 33.6917 114.299 33.8796 113.923 34.2555C113.547 34.4434 112.983 35.0072 112.983 35.9468C112.983 37.0743 113.735 37.826 114.299 38.3898L115.05 39.1415L115.238 39.5173C115.238 40.0811 115.05 40.2691 115.05 40.8328C114.862 41.3966 114.862 42.1483 114.674 43.4638V44.0275H115.238C115.426 44.0275 115.802 44.0275 116.178 44.0275C121.077 44.0275 142.541 43.8396 146.111 43.8396H146.675V43.2758C146.675 43.2758 146.675 42.1483 146.675 41.0208C146.675 40.457 146.675 39.8932 146.675 39.5173L146.863 39.1415C147.051 38.9536 147.427 38.7657 147.803 38.5777C148.179 38.2019 148.742 37.6381 148.742 36.6985C148.742 35.7589 147.991 35.0072 147.427 34.8192L146.863 34.4434L146.675 34.2555V26.913H146.487L146.675 27.1009V26.913H146.487L146.675 27.1009C146.675 27.1009 147.239 26.913 147.803 26.5372C148.367 26.1613 148.93 25.5975 148.742 24.47C148.742 23.3425 148.179 22.5907 147.615 22.4028L147.239 22.027V21.8391C147.239 21.0874 147.239 20.5236 147.239 19.7719C147.239 19.3961 147.239 19.0202 147.239 18.6444V17.8926H146.487H145.924C144.232 17.8926 142.729 17.8926 141.588 17.3289C140.272 16.7651 138.957 15.2617 136.313 15.2617C134.997 15.2617 133.87 15.6376 132.93 16.0134C131.99 16.3893 131.051 16.7651 130.675 16.7651C130.111 16.7651 129.547 16.5772 128.796 16.2013C128.044 15.8255 127.104 15.4496 125.977 15.4496C124.285 15.4496 123.158 16.0134 122.205 16.3893C121.077 16.953 120.138 17.5168 118.822 17.7047L119.01 18.2685V17.7047H115.05H114.299V18.4564L114.674 18.0806Z" fill="#002C77"/>
<path d="M117.305 18.2676C117.305 18.2676 117.305 25.6101 117.305 31.637C117.305 34.6438 117.305 37.2882 117.305 38.6037V39.1674H117.869C117.869 39.1674 124.46 39.1674 130.675 39.1674C136.514 39.1674 142.165 39.1674 142.729 39.1674H143.292V38.6037C143.292 34.268 143.292 18.2676 143.292 18.2676H141.977C141.977 18.2676 141.977 34.268 141.977 38.6037H142.541V38.0399C142.165 38.0399 136.326 38.0399 130.487 38.0399C124.084 38.0399 117.681 38.0399 117.681 38.0399V38.6037H118.245C118.245 37.2882 118.245 34.6438 118.245 31.637C118.245 25.6101 118.245 18.2676 118.245 18.2676H117.305Z" fill="#002C77"/>
<path d="M129.923 17.3301V38.6058H131.239V17.3301" fill="#002C77"/>
<path d="M130.863 35.9609C131.99 35.9609 133.87 36.7126 135.762 37.2763C138.205 38.028 140.85 37.4643 142.729 37.8401C143.293 38.028 130.863 38.028 130.863 38.028C130.863 35.7729 130.863 35.9609 130.863 35.9609Z" fill="#002C77"/>
<path d="M130.863 35.9607V36.5244C131.802 36.5244 133.681 37.2761 135.574 37.8399C138.205 38.5916 140.849 38.0278 142.541 38.4037H142.729L142.917 37.8399L142.541 38.4037L142.729 38.5916L142.917 38.0278H142.353L142.541 38.5916L142.917 38.0278L142.541 37.4641L142.353 38.0278H142.917L142.729 37.4641H142.541L142.917 38.0278L142.729 37.4641C142.165 37.4641 139.346 37.652 136.514 37.652C133.681 37.652 131.05 37.652 131.05 37.652V38.2158H131.614C131.614 37.4641 131.614 36.9003 131.614 36.5244V35.9607V35.7728V35.5848L131.426 35.3969L130.863 35.209C130.487 35.209 130.299 35.3969 130.299 35.5848V35.7728L130.111 36.5244H130.863V35.9607L131.426 36.3365V36.1486L130.863 35.9607V36.5244C131.238 36.5244 131.426 36.3365 131.426 36.1486L130.863 35.9607L130.299 36.3365L130.863 36.5244V35.9607L130.299 36.1486L130.487 36.3365L130.863 35.9607L130.299 36.1486V36.5244C130.299 36.9003 130.299 37.2761 130.299 38.2158V38.9675H131.05C131.05 38.9675 134.057 38.9675 136.89 38.9675C138.393 38.9675 139.896 38.9675 141.037 38.9675C141.601 38.9675 141.977 38.9675 142.353 38.9675H142.729H142.917H143.104H143.292L143.668 38.4037L143.48 37.8399L143.104 37.652C141.037 37.2761 138.393 37.8399 136.326 37.0882C134.447 36.5244 132.554 35.7728 131.238 35.7728L130.863 35.9607Z" fill="#002C77"/>
<path d="M129.172 39.1701C129.172 38.6063 129.736 38.2305 130.487 38.2305C131.239 38.2305 131.803 38.6063 131.803 39.1701C131.803 39.7339 131.239 40.1097 130.487 40.1097C129.736 40.1097 129.172 39.5459 129.172 39.1701Z" fill="#002C77"/>
<path d="M130.487 38.2298V38.7936L131.051 38.9815L131.239 39.1694L131.051 39.3573L130.487 39.5452L129.923 39.3573L129.735 39.1694L129.923 38.9815L130.487 38.7936V38.2298V37.666C129.923 37.666 129.547 37.8539 129.172 38.0419C128.796 38.2298 128.42 38.7936 128.42 39.1694C128.42 39.7332 128.796 40.109 129.172 40.2969C129.547 40.4849 129.923 40.6728 130.487 40.6728C131.051 40.6728 131.427 40.4849 131.803 40.2969C132.178 40.109 132.554 39.5453 132.554 39.1694C132.554 38.6056 132.178 38.2298 131.803 38.0419C131.427 37.8539 131.051 37.666 130.487 37.666V38.2298Z" fill="#002C77"/>
<path d="M129.923 35.9609C128.796 35.9609 126.916 36.7126 125.024 37.2763C122.581 38.028 119.936 37.4643 118.057 37.8401C117.493 38.028 129.923 38.028 129.923 38.028C129.735 35.7729 129.923 35.9609 129.923 35.9609Z" fill="#002C77"/>
<path d="M129.923 35.9607V35.3969C128.608 35.3969 126.728 36.1486 124.836 36.7124C122.581 37.4641 120.124 36.9003 118.057 37.2761H117.869L117.681 37.4641L117.493 38.0278L117.869 38.5916L118.057 38.7795C118.245 38.7795 118.433 38.7795 118.809 38.7795C121.252 38.9675 129.923 38.9675 129.923 38.9675H130.675V38.2158C130.675 37.4641 130.675 36.9003 130.675 36.5244V36.1486L129.923 35.9607L130.487 36.1486V35.9607H129.923L130.487 36.3365L130.675 36.1486L129.923 35.9607V36.5244L130.487 36.3365L129.923 35.9607L129.359 36.3365L129.923 36.5244V35.9607L129.359 36.1486L129.547 36.3365L129.923 35.9607L130.487 35.7728V35.5848V35.3969L129.923 35.209L129.359 35.3969L129.171 35.5848C129.171 35.7728 129.171 35.7728 129.171 36.3365C129.171 36.7124 129.171 37.0882 129.171 38.0278H129.735V37.4641C129.735 37.4641 126.728 37.4641 123.896 37.4641C122.393 37.4641 120.889 37.4641 119.936 37.4641C119.372 37.4641 118.997 37.4641 118.621 37.4641H118.245V38.0278L118.433 37.652V38.2158L118.621 37.8399L118.433 38.4037L118.809 37.8399H118.621L118.433 38.4037H118.997L118.809 37.8399L118.433 38.4037L118.809 38.9675L118.997 38.4037H118.433L118.809 38.9675L118.433 38.5916L118.621 39.1554L118.809 38.9675L118.433 38.5916L118.621 39.1554C120.312 38.7795 122.956 39.3433 125.587 38.5916C127.467 38.0279 129.547 37.2761 130.299 37.2761H131.051L130.863 36.5244L129.923 35.9607Z" fill="#002C77"/>
<path d="M47.8272 45.1965C48.2031 46.6999 49.3306 47.8274 51.4112 47.8274C54.9952 47.8274 58.3778 45.1965 60.445 43.6796C62.1363 42.5521 63.8276 41.2366 63.8276 38.7802L63.4518 39.7198C63.4518 39.7198 66.2707 36.901 73.2373 39.156C75.1165 39.7198 83.3986 44.4313 85.1033 45.183C86.6067 45.7468 92.07 49.7066 100.352 48.1898C100.352 48.1898 113.158 46.4985 110.325 33.317C108.258 23.9073 109.01 23.1556 109.762 20.1354C109.386 19.9475 101.855 18.2562 102.231 28.7934C99.0366 29.1692 94.8888 31.6122 97.5198 38.0151C98.6473 36.3238 100.151 34.6324 102.043 34.6324C103.359 34.6324 104.674 36.5117 104.674 37.8271C104.862 41.0219 101.48 42.5387 97.5198 41.9749C95.4526 41.599 93.5599 39.344 90.7411 37.2634C91.3048 37.0755 91.6807 35.3841 91.6807 34.6324C91.6807 32.9411 90.1773 32.1894 89.2377 31.6257C89.4256 31.0619 89.8014 30.3102 89.8014 29.7464C89.8014 28.4309 87.9222 28.4309 87.1705 28.0551C87.5464 27.6792 87.5464 27.8672 87.5464 27.3034C87.5464 25.4242 87.9222 24.2966 83.9624 24.4845C84.3382 22.6053 83.9624 21.2898 82.6469 20.9005L79.828 20.5247C77.9488 20.1489 79.828 19.5851 78.1367 18.0817C76.6333 16.5783 74.1769 18.0817 74.1769 18.0817C74.1769 16.7662 73.2373 15.6387 71.7339 15.6387C70.7943 15.6387 69.8546 15.6387 69.2909 16.0145L68.1633 16.9541C66.6599 16.9541 66.2841 15.6387 64.5793 15.6387C62.8746 15.6387 62.1363 16.9541 61.3846 17.8938C60.2571 17.33 60.0692 16.3904 58.5658 16.3904C57.6261 16.3904 57.4382 17.33 57.0624 17.8938C56.1227 19.0213 56.1227 20.1489 54.4314 20.7126L53.8677 19.5851V19.3972C51.6126 20.5247 46.1493 32.5787 46.1493 35.2096C46.1493 37.6526 48.2165 36.5251 48.2165 38.9815C48.2165 40.4849 45.9614 41.6125 45.9614 42.7534C45.9614 44.4448 47.8407 45.1965 49.5454 45.1965" fill="white"/>
<path d="M47.8268 45.194L47.263 45.3819C47.6388 47.2612 49.1422 48.5766 51.4107 48.3887C55.3706 48.3887 58.7532 45.5698 60.8204 44.053C62.5117 42.9255 64.4044 41.4221 64.4044 38.5898L63.0889 38.4019L62.713 39.3415L63.8406 39.9053C64.0285 39.7173 65.344 38.5898 68.1763 38.5898C69.4917 38.5898 70.9951 38.7777 72.8878 39.3415C73.6395 39.5294 76.2704 40.8449 78.7269 42.1603C81.1699 43.4758 83.8142 44.7913 84.7539 45.1671C85.3176 45.3551 86.6331 46.2947 88.7137 47.0464C90.7809 47.7981 93.4252 48.5498 96.6199 48.5498C97.7475 48.5498 99.0629 48.3619 100.58 48.1739L100.392 47.6101V48.1739C100.392 48.1739 103.023 47.7981 105.855 46.1068C108.486 44.4154 111.318 41.3952 111.318 36.3213C111.318 35.1937 111.13 33.8783 110.942 32.5494C110.003 27.8379 109.627 25.3948 109.627 23.7035C109.627 22.0122 110.003 21.2605 110.379 19.7437L110.567 19.1799L110.003 18.992L109.439 18.8041C109.063 18.8041 108.687 18.8041 108.311 18.8041C107.184 18.8041 105.305 19.1799 103.976 20.4954C102.472 21.8108 101.533 24.0794 101.533 27.8378V28.2137H102.097V27.6499C100.781 27.8378 99.2777 28.2137 97.9488 29.1533C96.8213 30.0929 95.8817 31.5963 95.8817 33.6769C95.8817 34.8045 96.2575 36.1199 96.8213 37.6367L97.1971 38.7643L97.9488 37.8247C99.0764 36.1334 100.392 34.63 102.097 34.8179C102.472 34.8179 103.036 35.1937 103.412 35.5696C103.788 36.1334 104.164 36.8851 104.164 37.2609V37.4488C104.164 38.5764 103.788 39.3281 102.848 39.8918C102.097 40.4556 100.781 40.8315 99.4656 40.8315C98.9019 40.8315 98.3381 40.8315 97.5864 40.6435C95.8951 40.4556 93.8145 38.2005 90.9956 35.932L90.6198 36.4958L90.8077 37.0595L91.3715 36.3078C91.7473 35.5562 92.1232 34.4286 92.1232 33.8648C92.1232 32.9252 91.7473 31.9856 91.1836 31.4218C90.6198 30.858 90.056 30.4822 89.4922 30.2943L89.1164 30.8581L89.6802 31.046C89.8681 30.4822 90.2439 29.7305 90.2439 28.9788C90.2439 28.415 90.056 28.0392 89.6802 27.8513C89.3043 27.4754 88.7405 27.2875 88.1768 27.0996C87.8009 26.9116 87.2371 26.9116 87.2371 26.7237L86.8613 27.2875L87.4251 27.6633L87.8009 27.2875L87.9888 26.5358V25.7841C87.9888 25.0324 87.9888 24.2807 87.2371 23.7169C86.6734 23.1532 85.7338 22.9652 84.2304 22.9652H83.6666V23.529L84.2304 23.7169C84.2304 23.3411 84.4183 22.7773 84.4183 22.4015C84.4183 21.086 83.8545 19.7705 82.539 19.2068L79.5323 18.8309V19.3947L79.7202 18.8309H79.3443L79.1564 19.0188H79.3443V18.8309L79.1564 19.0188H79.3443V18.643C79.3443 18.0792 79.1564 17.3275 78.4047 16.5758C77.8409 16.012 76.9013 15.8241 76.3375 15.8241C75.0221 15.8241 73.8945 16.5758 73.7066 16.5758L74.0825 17.1396H74.6462C74.6462 16.3879 74.2704 15.6362 73.8945 15.0724C73.3308 14.5087 72.5791 14.1328 71.6394 14.1328C70.6998 14.1328 69.5723 14.1328 68.8206 14.5087L67.5051 15.4483L67.881 16.012V15.4483C67.3172 15.4483 67.1293 15.2604 66.5655 14.8845C66.0017 14.5087 65.4379 14.1328 64.3104 14.1328C63.1829 14.1328 62.4312 14.5087 61.8674 15.0724C61.3036 15.6362 60.9278 16.2 60.5519 16.5758L61.1157 16.9517L61.3036 16.3879C60.9278 16.2 60.5519 15.8241 60.1761 15.4483C59.8002 15.0724 59.0485 14.6966 58.1089 14.6966C57.3572 14.6966 56.9814 15.0724 56.6055 15.4483C56.2297 15.8241 56.2297 16.2 56.0417 16.3879C55.478 17.1396 55.1021 17.7034 54.9142 18.0792C54.5383 18.4551 54.3504 18.8309 53.7866 19.0188L53.9746 19.5826L54.5383 19.2068L53.9746 18.2671V18.0792L53.7866 17.3275L53.0349 17.7034C52.0953 18.0792 51.5316 19.2068 50.5919 20.5222C49.2765 22.5894 47.961 25.4217 46.82 28.0526C45.6791 30.6836 44.9408 32.9521 44.9408 34.0796C44.9408 34.8313 45.1287 35.2072 45.3166 35.7709C45.6925 36.3347 46.2563 36.5226 46.4442 36.7105C46.6321 36.8985 46.82 37.0864 46.82 38.026C46.82 38.4019 46.4442 38.9656 45.8804 39.5294C45.3166 40.0932 44.5649 40.8449 44.5649 41.7845C44.5649 42.912 45.3166 43.6637 46.0683 44.2275C46.82 44.7913 47.7596 44.9792 48.6993 44.9792V44.4154L48.5113 43.8517L47.3838 44.2275L46.82 44.4154L47.008 44.9792L47.8268 45.194L48.0147 45.7578L49.1422 45.3819L48.9543 44.0664C48.2026 44.0664 47.4509 43.8785 46.8871 43.5027C46.3234 43.1268 46.1354 42.751 46.1354 42.1872C46.1354 41.9993 46.5113 41.4355 47.0751 40.6838C47.6388 40.12 48.3905 39.3683 48.3905 38.2408C48.3905 36.7374 47.6388 35.9857 47.0751 35.7978L46.5113 35.4219C46.3234 35.234 46.3234 35.0461 46.3234 34.4823C46.3234 34.1065 46.6992 32.791 47.0751 31.2876C47.8268 29.0325 49.1422 26.2002 50.4577 23.7572C51.0215 22.6297 51.7732 21.5021 52.3369 20.7504C52.9007 19.9987 53.4645 19.435 53.6524 19.247L53.4645 18.6833L52.9007 18.8712V19.0591L53.4645 20.1866L53.6524 20.5625L54.2162 20.3746C55.1558 19.9987 55.7196 19.435 56.0954 18.8712C56.4713 18.3074 56.6592 17.7436 57.0351 17.3678L57.5988 16.4282L58.1626 16.0523C58.9143 16.0523 59.1022 16.2402 59.2901 16.4282C59.666 16.6161 60.0418 17.1799 60.7935 17.5557L61.1694 17.7436L61.5452 17.3678C61.9211 16.804 62.2969 16.4282 62.6728 16.0523C63.0486 15.6765 63.4245 15.4885 64.1762 15.4885C64.9279 15.4885 65.1158 15.6765 65.6796 16.0523C66.2433 16.4282 66.8071 16.804 67.7467 16.804H67.9347L69.2501 15.6765C69.626 15.4885 70.5656 15.3006 71.5052 15.3006C72.8207 15.3006 73.3844 16.0523 73.3844 16.9919V18.1195L74.3241 17.5557H74.512C74.8878 17.3678 75.6395 16.9919 76.2033 16.9919C76.7671 16.9919 77.1429 17.1799 77.5188 17.3678C78.0826 17.9315 78.0826 18.1195 78.0826 18.4953V18.8712L78.4584 19.8108C78.8343 19.9987 79.0222 20.1866 79.5859 20.1866L82.5927 20.5625V19.9987L82.4048 20.5625C83.1565 20.9383 83.5324 21.3142 83.5324 22.4417C83.5324 22.8176 83.5324 23.0055 83.3444 23.3814L83.2236 24.1062H83.9753H84.5391C85.8546 24.1062 86.6063 24.2941 86.7942 24.4821C86.9821 24.67 86.9821 24.8579 86.9821 25.6096V26.3613V26.5492V26.7372L86.7942 27.113L86.4183 27.6768L86.9821 28.0526C87.5459 28.4285 88.2976 28.4285 88.6734 28.6164L89.2372 28.8043L89.4251 29.1802C89.4251 29.556 89.0493 30.3077 88.8613 30.8715L88.6734 31.4353L89.0493 31.6232C89.613 31.8111 90.1768 32.1869 90.5527 32.5628C90.9285 32.9386 91.1164 33.3145 91.1164 34.0662C91.1164 34.2541 90.9285 34.8179 90.9285 35.3816L90.7406 35.9454L90.5661 36.1468L90.754 36.3347V36.1468L90.9419 36.3347V36.1468L90.0023 36.5226L90.9419 37.0864C93.7608 39.1536 95.6535 41.4221 98.0965 41.9859C98.8482 42.1738 99.4119 42.1738 100.164 42.1738C101.855 42.1738 103.17 41.7979 104.311 41.0462C105.439 40.2945 106.191 39.167 106.003 37.6636V37.2878C106.003 36.3481 105.627 35.5964 104.875 34.8447C104.311 34.093 103.56 33.5293 102.62 33.5293C100.177 33.5293 98.6603 35.5964 97.5327 37.1132L98.0965 37.4891L98.6602 37.3012C98.0965 35.9857 97.9086 34.6702 97.9086 33.7172C97.9086 32.0259 98.4723 30.8983 99.5999 30.1332C100.539 29.3815 101.855 29.0057 102.983 28.8177H103.546V28.254V27.8781C103.546 24.2941 104.486 22.4149 105.613 21.4753C106.741 20.5357 108.056 20.1598 108.996 20.1598H109.936H110.124V19.9719L109.936 20.1598V19.9719L109.748 20.1598L109.936 19.596L109.372 19.4081C108.996 20.9115 108.62 21.8511 108.62 23.7438C108.62 25.623 108.996 28.0795 109.936 32.7776C110.124 34.093 110.312 35.2206 110.312 36.3616C110.312 41.0731 107.869 43.704 105.412 45.2074C104.097 45.9591 102.969 46.5229 102.029 46.7108C101.654 46.8987 101.09 46.8987 100.902 47.0866H100.526C99.2106 47.2746 98.0831 47.4625 96.9421 47.4625C93.9353 47.4625 91.4789 46.7108 89.5996 45.9591C87.7204 45.2074 86.4049 44.4557 85.6398 44.0799C84.8881 43.704 82.2572 42.3885 79.8007 41.0731C77.3577 39.7576 74.7133 38.4421 73.5858 38.0663C71.5186 37.5025 69.8139 37.1267 68.4984 37.1267C64.9144 37.1267 63.2231 38.6301 63.2231 38.818L63.599 39.1938L64.1627 39.3818L64.5386 38.4421L63.9748 38.2542H63.0352C63.0352 40.5093 61.7197 41.4489 60.0284 42.5899C57.9612 44.0933 54.5652 46.7376 51.3705 46.5497C49.6792 46.5497 48.9275 45.798 48.5516 44.4826L47.8268 45.194Z" fill="#002C77"/>
<path d="M53.29 35.0215C53.29 35.0215 55.9209 35.9611 55.9209 36.5249C55.9209 37.2766 54.2296 38.0283 53.1021 38.9679H51.7866C52.3504 37.2766 51.7866 38.0283 51.7866 36.5249C51.7866 35.3973 52.9142 35.0215 53.29 35.0215Z" fill="#002C77"/>
<path d="M53.2902 35.0208L53.1023 35.5846C53.1023 35.5846 53.666 35.7725 54.4177 36.1483L55.1694 36.5242L55.3573 36.7121L55.7332 36.5242H55.3573V36.7121L55.7332 36.5242H55.3573H55.5453H55.7332L55.5453 36.7121C55.1694 37.088 54.0419 37.8397 53.1023 38.5914L53.4781 39.1551V38.5914H51.7868V39.1551L52.3506 39.3431C52.5385 38.7793 52.5385 38.4034 52.5385 38.0276L52.3506 37.2893C52.3506 37.1014 52.3506 36.9135 52.3506 36.5376L52.7264 35.9738L53.2902 35.7859V35.0208V34.457C52.9143 34.457 52.3506 34.645 51.9747 35.0208C51.5989 35.3966 51.0351 35.9604 51.0351 36.7121C51.0351 37.2759 51.0351 37.6517 51.223 37.8397V38.2155C51.223 38.2155 51.223 38.5914 51.0351 39.1551L50.8472 39.9068H53.1023H53.2902L53.4781 39.7189C54.0419 39.3431 54.6056 38.7793 55.1694 38.4034C55.7332 38.0276 56.297 37.6517 56.4849 36.7121L56.297 36.1483C55.9211 35.7725 55.1694 35.3966 54.6057 35.2087C54.0419 35.0208 53.4781 34.8329 53.4781 34.8329H53.2902H53.1023V35.0208H53.2902Z" fill="#002C77"/>
<path d="M63.0754 31.2626C64.015 30.8867 64.203 29.9471 64.5788 29.5713C64.7667 29.1954 64.7667 29.0075 65.7064 29.0075C66.4581 29.0075 67.0218 29.1954 67.5856 29.5713C68.1494 29.9471 68.9011 30.3229 70.0286 30.3229C70.7803 30.3229 71.3441 29.9471 71.9079 29.7592C72.4716 29.5712 72.8475 29.1954 73.5992 29.1954C73.975 29.1954 74.7267 29.5712 75.1026 30.135C75.6663 30.6988 76.0422 31.4505 76.0422 32.3901V32.7659L75.8543 33.7056L76.7939 33.3297L77.1697 33.1418C77.3577 33.1418 77.7335 32.9539 78.1094 32.9539C78.6731 32.9539 79.4248 33.1418 79.8007 33.5176C80.1765 33.8935 80.7403 34.6452 80.7403 35.9607V36.3365V37.2761L81.6799 36.9003C82.2437 36.7124 82.8075 36.5244 83.1833 36.5244C83.5592 36.5244 83.935 36.7124 84.1229 36.7124C84.3109 36.9003 84.4988 37.464 84.6867 38.0278C84.8746 38.5916 84.8746 39.3433 85.0626 39.9071C85.2505 40.4708 85.6263 40.8467 86.0022 41.0346C86.5659 41.4105 87.1297 41.4105 87.3176 41.5984C87.5056 41.7863 87.6935 41.9742 87.6935 42.7259V43.2897L89.009 43.4776V42.7259C89.009 41.9742 88.821 41.4105 88.4452 41.0346C87.8814 40.4708 87.3176 40.2829 86.9418 40.095C86.5659 39.9071 86.378 39.9071 86.378 39.7192C86.1901 39.1554 86.1901 38.2157 85.8143 37.2761C85.6263 36.9003 85.4384 36.3365 85.0626 35.9607C84.6867 35.5848 84.1229 35.3969 83.3712 35.3969C82.8075 35.3969 82.2437 35.5848 81.492 35.7727L81.6799 36.3365H82.2437V35.9607C82.2437 34.2693 81.6799 33.1418 80.9282 32.3767C80.1765 31.625 79.2369 31.625 78.2973 31.625C77.3577 31.625 76.606 31.8129 76.418 31.8129L76.606 32.3767H77.1697V31.8129C77.1697 30.4974 76.606 29.5578 76.0422 28.8061C75.2905 28.0544 74.5388 27.4907 73.5992 27.4907C72.6596 27.4907 71.9079 27.8665 71.3441 28.0544C70.7803 28.4303 70.4045 28.6182 70.0286 28.6182C69.2769 28.6182 68.9011 28.4303 68.1494 28.0544C67.5856 27.6786 66.646 27.3027 65.5184 27.3027C64.203 27.3027 63.4513 27.8665 63.2634 28.6182C62.8875 29.182 62.8875 29.5578 62.3237 29.7457L63.0754 31.2626Z" fill="#002C77"/>
<path d="M9.40991 18.2672H13.3697C16.3765 17.5155 17.3296 15.8242 20.5243 15.8242C22.7794 15.8242 23.719 17.3276 25.4237 17.3276C26.7392 17.3276 28.8064 15.8242 31.0749 15.8242C33.3434 15.8242 34.4575 17.1397 36.1623 17.8914C37.4777 18.4551 39.357 18.4552 41.2496 18.4552C41.2496 19.7706 41.2496 20.5223 41.2496 21.6499C41.2496 22.7774 42.753 22.4016 42.753 24.2808C42.753 26.348 40.6859 25.7842 40.6859 26.7238V34.0663C40.6859 35.0059 42.5651 35.1938 42.5651 36.5093C42.5651 38.5765 40.4979 37.8248 40.6859 39.5161C40.8738 40.6436 40.6859 43.288 40.6859 43.288C36.726 43.288 11.6918 43.288 10.3764 43.288C10.3764 40.6571 10.3764 41.0329 10.3764 39.5161C10.3764 38.3885 8.12128 37.8248 8.12128 35.9321C8.12128 34.8046 9.62468 34.8046 9.62468 33.677V26.3346C9.62468 25.3949 7.36959 24.8311 7.55751 23.5157C7.55751 21.8244 9.62468 22.0123 9.62468 21.0727C9.40991 20.5223 9.40991 18.6431 9.40991 18.2672Z" fill="white"/>
<path d="M9.4103 18.2692V18.833H13.3701C14.8735 18.4571 16.0011 17.8933 16.9541 17.3296C17.8937 16.7658 18.8334 16.3899 20.1488 16.3899C21.0884 16.3899 21.8401 16.7658 22.4039 16.9537C23.1556 17.3296 23.9073 17.7054 24.8469 17.7054C25.7865 17.7054 26.5382 17.3296 27.6658 16.9537C28.6054 16.5779 29.545 16.202 30.6726 16.202C32.7397 16.202 33.6794 17.3296 35.3841 18.2692C36.8875 18.8329 38.3909 18.833 40.2836 18.833H40.6594V18.2692H40.0956C40.0956 18.645 40.0956 19.2088 40.0956 19.3967C40.0956 20.1484 40.0956 20.7122 40.0956 21.4639C40.0956 21.8397 40.2836 22.2156 40.4715 22.5914L41.2232 23.1552C41.4111 23.3431 41.4111 23.5311 41.599 24.0948C41.599 24.8465 41.4111 24.8465 41.0352 25.2224L40.2836 25.5982C40.0956 25.7861 39.7198 26.162 39.7198 26.5378H40.4715H39.9077V33.8803C39.9077 34.2562 40.2836 34.632 40.4715 34.8199C40.8473 35.1958 41.2232 35.3837 41.4111 35.5716L41.7869 36.1354C41.7869 36.5113 41.7869 36.6992 41.599 36.8871C41.4111 37.075 41.2232 37.2629 40.8473 37.4509C40.4715 37.6388 39.9077 38.2026 39.9077 38.9543V39.1422C39.9077 39.518 39.9077 40.0818 39.9077 40.6456C39.9077 41.7731 39.9077 42.9007 39.9077 42.9007H40.4715V42.3369C38.7802 42.3369 32.7532 42.3369 26.5382 42.3369C18.8199 42.3369 10.7258 42.3369 10.162 42.3369V42.9007H10.7392C10.7392 42.149 10.7392 41.7731 10.7392 41.3973C10.7392 40.8335 10.7392 40.4577 10.7392 40.2697C10.7392 40.0818 10.7392 39.8939 10.7392 39.3301C10.7392 38.7663 10.5513 38.3905 10.1754 38.2026C9.79957 37.8267 9.2358 37.4509 9.04787 37.075C8.67203 36.6992 8.4841 36.3233 8.4841 35.9475C8.4841 35.5716 8.4841 35.5716 9.04787 35.1958C9.42372 35.0078 9.98749 34.4441 10.1754 33.6924V26.3499C9.98749 25.4103 9.2358 25.0345 8.85995 24.6586C8.29618 24.2828 8.10825 23.9069 8.10825 23.719C8.10825 23.1552 8.29618 23.1552 8.85995 22.7794L9.61165 22.2156C9.79957 22.0277 10.1754 21.6518 10.1754 21.088C10.1754 20.7122 10.1754 19.3967 10.1754 18.833V18.4571L9.4103 18.2692H8.84653V18.645C8.84653 19.3967 8.84653 20.5243 8.84653 20.9001V21.088C8.6586 21.276 8.28275 21.4639 7.90691 21.6518C7.53106 22.0277 6.96729 22.5914 6.96729 23.3431V23.5311C6.96729 24.6586 7.71898 25.2224 8.28275 25.5982L9.03445 26.162L9.22237 26.3499V33.6924C9.22237 33.8803 9.03445 34.0682 8.6586 34.4441C8.28275 34.632 7.71898 35.1958 7.71898 36.1354C7.71898 37.263 8.47068 38.0146 9.03445 38.5784L9.78615 39.3301L9.97407 39.706C9.97407 40.0818 9.97407 40.4577 9.97407 40.6456C9.97407 41.0214 9.97407 41.2094 9.97407 41.7731C9.97407 42.149 9.97407 42.7127 9.97407 43.2765V43.8403H10.5378C11.2895 43.8403 19.1958 43.8403 26.9141 43.8403C33.129 43.8403 38.9681 43.8403 40.8473 43.8403H41.4111V43.2765C41.4111 43.2765 41.4111 42.149 41.4111 41.0214C41.4111 40.4577 41.4111 39.8939 41.4111 39.518V39.3301L41.599 38.9543C41.7869 38.7663 42.1628 38.5784 42.5386 38.3905C42.9145 38.0146 43.4783 37.4509 43.4783 36.5113C43.4783 35.5716 42.7266 34.8199 42.1628 34.632L41.6124 34.2696L41.4245 34.0817V26.7392H41.2366L41.4245 26.9271V26.7392H41.2366L41.4245 26.9271C41.4245 26.9271 41.9883 26.7392 42.5521 26.3634C43.1158 25.9875 43.6796 25.4237 43.4917 24.2962C43.4917 23.1686 42.9279 22.4169 42.3641 22.229L41.9883 21.8532V21.6652C41.9883 20.9136 41.9883 20.3498 41.9883 19.5981C41.9883 19.2222 41.9883 18.8464 41.9883 18.4705V17.7188H41.2366H40.4849C38.7936 17.7188 37.2902 17.7188 36.1492 17.1551C34.8338 16.5913 33.5183 15.0879 30.8739 15.0879C29.5585 15.0879 28.4309 15.4637 27.4913 15.8396C26.5517 16.2154 25.612 16.5913 25.2362 16.5913C24.6724 16.5913 24.1087 16.4034 23.357 16.0275C22.6053 15.6517 21.6656 15.2758 20.5381 15.2758C18.8468 15.2758 17.7192 15.8396 16.7662 16.2154C15.6386 16.7792 14.699 17.343 13.3836 17.5309L13.5715 18.0947V17.5309H9.59822H8.84653V18.2826L9.4103 18.2692Z" fill="#002C77"/>
<path d="M12.0547 18.457C12.0547 18.457 12.0547 25.7995 12.0547 31.8265C12.0547 34.8333 12.0547 37.4776 12.0547 38.7931V39.3569H12.6185C12.6185 39.3569 18.2696 39.3569 24.2966 39.3569C30.5115 39.3569 36.9144 39.3569 37.6661 39.3569H38.2298V38.7931C38.2298 34.4574 38.2298 18.457 38.2298 18.457H36.9144C36.9144 18.457 36.9144 34.4574 36.9144 38.7931H37.4781V38.2293C37.1023 38.2293 30.5115 38.2293 24.2966 38.2293C18.2696 38.2293 12.6185 38.2293 12.6185 38.2293V38.7931H13.1822C13.1822 37.4776 13.1822 34.8333 13.1822 31.8265C13.1822 25.7995 13.1822 18.457 13.1822 18.457H12.0547Z" fill="#002C77"/>
<path d="M24.4844 17.3301V38.7937H25.7998V17.3301" fill="#002C77"/>
<path d="M25.4238 36.1478C26.5514 36.1478 28.4306 36.8995 30.3233 37.4632C32.7663 38.2149 35.4107 37.6511 37.2899 38.027C37.8537 38.2149 25.4238 38.2149 25.4238 38.2149C25.6118 35.7719 25.4238 36.1478 25.4238 36.1478Z" fill="#002C77"/>
<path d="M25.424 36.1482V36.7119C26.1757 36.7119 28.2429 37.4636 30.1355 38.0274C32.7665 38.7791 35.4108 38.2154 37.1021 38.5912H37.2901L37.478 38.0274L37.1021 38.5912L37.2901 38.7791L37.478 38.2153H36.9142L37.1021 38.7791L37.478 38.2153L37.1021 37.6516L36.9142 38.2153H37.478L37.2901 37.6516H37.1021L37.478 38.2153L37.2901 37.6516C36.7263 37.6516 33.9074 37.8395 31.0751 37.8395C28.2429 37.8395 25.6119 37.8395 25.6119 37.8395V38.4033H26.1757C26.1757 37.6516 26.1757 37.0878 26.1757 36.7119V36.1482V35.9603V35.7723L25.9878 35.5844L25.424 35.3965C25.0481 35.3965 24.8602 35.5844 24.8602 35.7723L24.6723 35.9603L24.4844 36.7119H25.2361L25.424 36.1482L25.9878 36.524V36.3361L25.424 36.1482V36.7119C25.7998 36.7119 25.9878 36.524 25.9878 36.3361L25.424 36.1482L24.8602 36.524L25.424 36.7119V36.1482L24.8602 36.3361L25.0481 36.524L25.424 36.1482L24.8602 36.3361L25.2361 36.1482H24.8602L25.2361 35.9603H24.8602V36.3361C24.8602 36.7119 24.8602 37.0878 24.8602 38.0274V38.7791H25.6119C25.6119 38.7791 28.6187 38.7791 31.451 38.7791C32.9544 38.7791 34.4578 38.7791 35.5987 38.7791C36.1625 38.7791 36.5384 38.7791 36.9142 38.7791H37.2901H37.478H37.6659H37.8538L38.2297 38.2153L38.0418 37.6516L37.6659 37.4636C35.5987 37.0878 32.9544 37.6516 30.8872 36.8999C29.008 36.3361 27.1153 35.5844 25.7998 35.5844L25.424 36.1482Z" fill="#002C77"/>
<path d="M23.7192 39.1701C23.7192 38.6063 24.283 38.2305 25.0347 38.2305C25.7864 38.2305 26.3502 38.6063 26.3502 39.1701C26.3502 39.7339 25.7864 40.1097 25.0347 40.1097C24.283 40.1097 23.7192 39.7339 23.7192 39.1701Z" fill="#002C77"/>
<path d="M25.0476 38.2298V38.7936L25.6114 38.9815L25.7993 39.1694L25.6114 39.3573L25.0476 39.5452L24.4839 39.3573L24.2959 39.1694L24.4839 38.9815L25.0476 38.7936V38.2298V37.666C24.4839 37.666 24.108 37.8539 23.7322 38.0419C23.3563 38.2298 22.9805 38.7936 22.9805 39.1694C22.9805 39.7332 23.3563 40.109 23.7322 40.2969C24.108 40.4849 24.4839 40.6728 25.0476 40.6728C25.6114 40.6728 25.9873 40.4849 26.3631 40.2969C26.7389 40.109 27.1148 39.5453 27.1148 39.1694C27.1148 38.6056 26.7389 38.2298 26.3631 38.0419C25.9873 37.8539 25.6114 37.666 25.0476 37.666V38.2298Z" fill="#002C77"/>
<path d="M24.4841 36.1478C23.3565 36.1478 21.4773 36.8995 19.5846 37.4632C17.1416 38.2149 14.4973 37.6511 12.618 38.027C12.0542 38.2149 24.2962 38.2149 24.2962 38.2149C24.4841 35.7719 24.4841 36.1478 24.4841 36.1478Z" fill="#002C77"/>
<path d="M24.4845 36.1482V35.5844C23.1691 35.5844 21.2898 36.3361 19.3972 36.8999C17.1421 37.6516 14.6856 37.0878 12.6185 37.4636H12.4305L12.2426 37.6516L12.0547 38.2153L12.4305 38.7791L12.6185 38.967C12.8064 38.967 12.9943 38.967 13.3702 38.967C15.8132 39.155 24.4845 39.155 24.4845 39.155H25.2362V38.4033C25.2362 37.6516 25.2362 37.0878 25.2362 36.7119V36.3361L24.4845 36.1482L25.0483 36.3361V36.1482H24.4845L25.0483 36.524L25.2362 36.3361L24.4845 36.1482V36.7119L25.0483 36.524L24.4845 36.1482L23.9208 36.524L24.4845 36.7119V36.1482L23.9208 36.3361L24.1087 36.524L24.4845 36.1482L25.0483 35.9603V35.7723V35.5844L24.4845 35.3965L23.9208 35.5844L23.7328 35.7723C23.7328 35.9603 23.7328 35.9603 23.7328 36.524C23.7328 36.8999 23.7328 37.2757 23.7328 38.2153H24.2966V37.6516C24.2966 37.6516 21.2898 37.6516 18.4575 37.6516C16.9541 37.6516 15.4507 37.6516 14.4977 37.6516C13.9339 37.6516 13.5581 37.6516 13.1822 37.6516H12.8064V38.0274L12.9943 37.6516V38.0274L13.1822 37.6516L12.9943 38.2153L13.3702 37.6516H13.1822L12.9943 38.2153H13.5581L13.3702 37.6516L12.9943 38.2153L13.3702 38.7791L13.5581 38.2153H12.9943L13.3702 38.7791L12.9943 38.4033L13.1822 38.967L13.3702 38.7791L12.9943 38.4033L13.1822 38.967C14.8735 38.5912 17.5179 39.155 20.1488 38.4033C22.0281 37.8395 23.9208 37.0878 24.8604 37.0878H25.6121L25.4241 36.3361L24.4845 36.1482Z" fill="#002C77"/>
<path d="M29.1821 112.983C29.1821 106.204 35.0212 100.553 42.1757 100.553C49.3303 100.553 55.1694 106.204 55.1694 112.983C55.1694 119.949 49.3303 125.412 42.1757 125.412C35.0212 125.412 29.1821 119.761 29.1821 112.983Z" fill="white"/>
<path d="M42.176 100.552V101.116C48.9547 101.116 54.418 106.392 54.418 112.982C54.418 119.573 48.9547 124.848 42.176 124.848C35.3973 124.848 29.9341 119.573 29.9341 112.982C29.9341 106.392 35.3973 101.116 42.176 101.116V100.552V99.8008C34.6456 99.8008 28.6187 105.64 28.6187 112.982C28.6187 120.325 34.6456 125.976 42.176 126.164C49.7064 126.164 55.7334 120.325 55.7334 112.982C55.7334 105.64 49.7064 99.9887 42.176 99.8008V100.552Z" fill="#002C77"/>
<path d="M64.7676 83.0353C64.7676 76.0687 70.6067 70.6055 77.7612 70.6055C84.9157 70.6055 90.7548 76.2566 90.7548 83.0353C90.7548 90.0019 84.9157 95.4652 77.7612 95.4652C70.6067 95.4652 64.7676 89.814 64.7676 83.0353Z" fill="white"/>
<path d="M77.7605 70.6048V71.1686C84.5392 71.1686 90.0024 76.4439 90.0024 83.0346C90.0024 89.6254 84.5392 94.9007 77.7605 94.9007C70.9818 94.9007 65.5186 89.6254 65.5186 83.0346C65.5186 76.4439 70.9818 71.1686 77.7605 71.1686V70.6048V70.041C70.2301 70.041 64.2031 75.8801 64.2031 83.2226C64.2031 90.565 70.2301 96.4041 77.7605 96.4041C85.2909 96.4041 91.3179 90.565 91.3179 83.2226C91.3179 75.8801 85.2909 70.041 77.7605 70.041V70.6048Z" fill="#002C77"/>
<path d="M98.2847 112.983C98.2847 106.204 104.124 100.553 111.278 100.553C118.433 100.553 124.272 106.204 124.272 112.983C124.272 119.949 118.433 125.412 111.278 125.412C104.124 125.399 98.2847 119.761 98.2847 112.983Z" fill="white"/>
<path d="M111.279 100.552V101.116C118.057 101.116 123.52 106.392 123.52 112.982C123.52 119.573 118.057 124.848 111.279 124.848C104.5 124.848 99.0367 119.573 99.0367 112.982C99.0367 106.392 104.5 101.116 111.279 101.116V100.552V99.8008C103.748 99.8008 97.7212 105.64 97.7212 112.982C97.7212 120.325 103.748 125.976 111.279 126.164C118.809 126.164 124.836 120.325 124.836 112.982C124.836 105.64 118.809 99.9887 111.279 99.8008V100.552Z" fill="#002C77"/>
<path d="M91.1303 36.1475C89.439 34.2682 87.9356 32.3756 86.7946 30.8722C86.2308 30.1205 85.6671 29.3688 85.2912 28.9929L84.7274 28.4292L84.1637 28.0533C83.9758 28.0533 83.412 27.4895 82.6603 26.5499C80.4052 24.1069 76.0695 19.3954 67.9754 19.0195H67.2237C65.5323 19.0195 62.5121 19.2075 59.8812 19.7712C58.5657 19.9591 57.2503 20.335 56.2972 20.8988C55.3576 21.2746 54.6059 21.8384 54.418 22.9659L55.7334 23.1539C55.7334 22.9659 56.1093 22.5901 57.0489 22.0263C59.4919 20.8988 65.1431 20.1471 67.5995 20.1471H68.1633C73.2506 20.5229 76.6333 22.4022 79.0897 24.4827C80.2173 25.4224 81.1569 26.5499 81.9086 27.3016C82.6603 28.0533 83.2241 28.805 83.7878 28.9929C83.7878 28.9929 84.1637 29.3688 84.5395 29.7446C85.6671 31.248 87.9222 34.2682 90.3786 36.8992L91.1303 36.1475Z" fill="#002C77"/>
<path d="M64.3916 39.3563V38.6046C64.3916 38.2287 64.0158 38.0408 64.0158 37.8529L63.2641 37.665C62.8883 37.665 62.3245 37.665 61.9486 37.665C61.5728 37.665 61.1969 37.665 61.009 37.665L60.8211 38.2287L61.1969 37.8529L61.009 37.665L60.8211 38.2287H61.3849L61.1969 37.665L60.8211 38.0408L61.1969 38.4167L61.3849 38.0408H60.8211L61.1969 38.4167L61.5728 38.2287L61.7607 38.0408H61.9486L62.1366 37.8529L62.3245 37.477L61.9486 36.9133H61.7607V37.477L61.9486 38.0408C62.7003 37.8529 63.6399 37.2891 64.5796 36.7253C65.1433 36.3495 65.5192 36.1616 65.895 35.7857C66.2709 35.4099 66.6467 35.034 66.6467 34.4703C66.6467 34.0944 66.4588 33.7186 66.083 33.3427C64.7675 32.2152 64.2037 30.8997 63.2641 29.9601C62.1366 28.8325 60.8211 28.0808 58.9284 28.0808C57.8009 28.0808 56.8613 28.8325 55.7337 29.5842C54.7941 30.3359 53.8545 31.2755 53.4786 31.4635L53.8545 32.0272L54.2303 32.4031C54.6062 32.0272 55.3579 31.4635 55.9216 30.5238C56.6733 29.7721 57.2371 28.8325 57.2371 27.705C57.2371 23.9331 54.4182 20.7384 53.6531 18.1074L52.3511 18.4564C53.1028 21.4632 55.9351 24.4834 55.9351 27.6781C55.9351 28.054 55.5592 28.9936 54.9954 29.5574C54.4317 30.3091 53.68 30.8729 53.3041 31.2487L54.0558 32.1883C54.6196 31.8125 55.5592 30.8728 56.4988 30.1211C57.4384 29.3694 58.3781 28.8057 58.7539 28.8057C60.4452 28.8057 61.1969 29.3694 62.1366 30.3091C62.7003 31.0608 63.6399 32.3762 64.9554 33.6917V33.8796L64.5796 34.2555C63.8279 35.0072 61.9486 35.7589 60.9956 36.1347L61.1835 37.4502V37.6381L60.9956 38.2019H61.1835V37.6381H60.6197L60.9956 38.2019L61.1835 37.6381L60.8077 37.2623L60.6197 37.6381H61.1835L60.9956 37.2623L61.3714 37.6381L61.1835 37.2623L60.8077 37.4502L60.4318 37.6381L60.2439 37.826L60.056 38.3898L60.2439 38.9536L60.6197 39.1415C61.1835 39.3294 61.7473 39.1415 62.499 39.3294H63.2507H63.4386L63.6265 38.9536L63.4386 39.1415H63.6265L63.8144 38.7657L63.6265 38.9536L64.0024 38.5777H63.4386L63.6265 38.9536L64.0024 38.5777H63.4386V39.3294L64.3916 39.3563Z" fill="#002C77"/>
<path d="M48.7666 45.3836C51.5855 45.3836 53.2902 45.1956 54.6057 44.4439C56.1091 43.6922 58.7534 42.1889 59.5051 40.2962L58.3776 39.7324C58.0017 40.86 55.3708 42.5513 54.0419 43.1151C52.9144 43.6788 51.411 43.8668 48.7666 43.8668V45.3836Z" fill="#002C77"/>
<path d="M3.77225 6.96569V8.28117H150.635V80.9675C150.071 110.525 133.306 133.13 115.614 148.567C106.768 156.285 97.533 161.936 90.0026 165.896C86.2307 167.775 82.848 169.278 80.2171 170.232C77.5862 171.171 75.5056 171.735 74.7539 171.547C74.0022 171.547 72.1229 170.983 69.6665 170.044C61.0086 166.661 44.6189 157.426 30.6857 142.365C16.7524 127.492 5.0743 106.968 5.0743 80.793V80.6051C5.0743 80.0413 5.0743 61.5845 5.0743 43.329C5.0743 34.1073 5.0743 25.0601 5.0743 18.2814C5.0743 11.5027 5.0743 6.97912 5.0743 6.97912H3.77225V8.29459V6.96569H2.44336C2.44336 6.96569 2.44336 79.6521 2.44336 80.7796V80.9675C2.44336 111.653 18.2558 135.009 35.0214 150.446C43.4914 158.164 52.1493 164.003 59.3173 167.963C62.9012 169.842 66.096 171.346 68.7269 172.487C71.3578 173.426 73.2505 173.99 74.7539 174.178H74.9418C76.4452 174.178 78.5258 173.614 81.1567 172.675C90.7543 169.091 108.459 159.681 123.896 144.432C139.333 129.184 152.702 107.908 153.078 81.1689V5.85156H2.44336V7.16705L3.77225 6.96569Z" fill="#002C77"/>
</svg>
